<?xml version="1.0" encoding="UTF-8"?>
<svg xmlns="http://www.w3.org/2000/svg" viewBox="0 0 1300 450"><defs><style>.a{fill:#0e349e;}.b{opacity:0.2;}.c{fill:#fff;}.d{fill:#fdd836;}.e{fill:#d0d8dc;}.f{fill:#ef5451;}.g{fill:#5ac7da;}.h{fill:#bdbdbd;}.i{fill:#e0e0e0;}.j{fill:#4cb6ac;}.k{fill:#1b87c9;}.l{fill:#014d41;}.m{fill:#f9a01b;}.n{fill:#0277bd;}.o{fill:#212121;}.p{fill:#faa629;}.q{fill:#e53a35;}.r{fill:#434343;}.s{fill:#b72025;}.t{fill:none;}</style></defs><title>blog-why-coding-is-so-important-for-IT-jobs</title><rect class="a" width="1300" height="450"/><g class="b"><path class="c" d="M243,400.83l-.2-1.54a4.31,4.31,0,0,0,2.9-1.67,4.38,4.38,0,0,0-4-7l-.2-1.53a5.93,5.93,0,0,1,5.47,9.48A5.9,5.9,0,0,1,243,400.83Z"/><path class="c" d="M108.32,330.11a4.49,4.49,0,0,1-3-1.15,4.55,4.55,0,0,1,2.75-7.95l.07,1.18a3.37,3.37,0,0,0-3.16,3.56,3.37,3.37,0,0,0,3.56,3.16l.07,1.19Z"/><path class="c" d="M28.85,347.59a4.69,4.69,0,0,1-4-2.2l1-.65a3.44,3.44,0,0,0,2.16,1.54,3.47,3.47,0,0,0,3.71-5.23l1-.65a4.69,4.69,0,0,1-1.47,6.47A4.75,4.75,0,0,1,28.85,347.59Z"/><path class="c" d="M319.19,374a6.09,6.09,0,0,1,9.51-7.61l-1.24,1a4.51,4.51,0,0,0-6.33-.7,4.49,4.49,0,0,0-.7,6.32Z"/><path class="c" d="M285.7,328h0a3.63,3.63,0,0,1,1.64,6.86,3.56,3.56,0,0,1-1.63.39,3.63,3.63,0,0,1-1.64-6.86,3.56,3.56,0,0,1,1.63-.39m0-1.62a5.24,5.24,0,1,0,4.68,2.88,5.22,5.22,0,0,0-4.68-2.88Z"/><path class="c" d="M79.06,429.7h0l.31,0a2.91,2.91,0,0,1-.3,5.8h-.31a2.91,2.91,0,0,1,.3-5.81m0-1.3a4.21,4.21,0,0,0-.44,8.4,3.39,3.39,0,0,0,.45,0,4.21,4.21,0,0,0,.43-8.39,3.25,3.25,0,0,0-.44,0Z"/><path class="c" d="M309.29,407.63a3,3,0,0,1,.85,6,2.8,2.8,0,0,1-.86.13,3.05,3.05,0,0,1,0-6.1m0-1.36a4.41,4.41,0,0,0,0,8.81,4.41,4.41,0,1,0,0-8.81Z"/><path class="c" d="M156.34,324.78h0a4.42,4.42,0,0,1,1.89.42,4.56,4.56,0,0,1,2.26,6,4.56,4.56,0,1,1-4.15-6.46m0-2a6.6,6.6,0,1,0,2.73.59,6.59,6.59,0,0,0-2.73-.59Z"/><path class="c" d="M172.32,385.39h0a5,5,0,0,1,1.71,9.67,5,5,0,0,1-6.4-3,5,5,0,0,1,.17-3.82,5,5,0,0,1,2.81-2.58,5,5,0,0,1,1.71-.3m0-2.23a7.12,7.12,0,0,0-2.47.44,7.2,7.2,0,1,0,2.47-.44Z"/><path class="c" d="M135.43,364.73l4.61,5.1-6.85.63-4.6-5.1,6.84-.63m.69-1.76-11.06,1,7.45,8.23,11.05-1L136.12,363Z"/><path class="c" d="M79.8,361.24l5,1.76,1.59,5.05-5-1.76-1.59-5.05m-2-2.1,2.57,8.17,8.07,2.84L85.84,362l-8.07-2.85Z"/><path class="c" d="M56.68,322.36l6.72,7-1.55,9.58-6.73-7,1.56-9.58m-1.59-5.1-2.52,15.47L63.44,344,66,328.56l-10.87-11.3Z"/><path class="c" d="M37.11,389.25a1.06,1.06,0,0,1-.49-.11,1.16,1.16,0,0,1-.56-1.54,5.1,5.1,0,0,1,3.12-2.76,5,5,0,0,1,4.12.51,2.81,2.81,0,0,0,2.27.29,2.84,2.84,0,0,0,1.7-1.53,5.06,5.06,0,0,1,7.25-2.25,1.16,1.16,0,0,1-1.18,2,2.75,2.75,0,0,0-4,1.24,5,5,0,0,1-3.11,2.75,5.1,5.1,0,0,1-4.13-.5,2.75,2.75,0,0,0-4,1.23A1.14,1.14,0,0,1,37.11,389.25Z"/><path class="c" d="M265.1,439.05h0a.77.77,0,0,1-.73-.79,1.77,1.77,0,0,0-.53-1.39,1.79,1.79,0,0,0-1.4-.5,3.31,3.31,0,0,1-3.54-3.47,1.79,1.79,0,0,0-1.93-1.9.77.77,0,0,1-.8-.71.75.75,0,0,1,.71-.8,3.31,3.31,0,0,1,3.54,3.47,1.78,1.78,0,0,0,1.93,1.89,3.39,3.39,0,0,1,2.56.94,3.31,3.31,0,0,1,1,2.53A.76.76,0,0,1,265.1,439.05Z"/><path class="c" d="M30.51,428.58h-.13a.85.85,0,0,1-.83-.89.86.86,0,0,1,.89-.83,2,2,0,0,0,1.57-.61,2.1,2.1,0,0,0,.57-1.6,3.73,3.73,0,0,1,1.05-2.9,3.78,3.78,0,0,1,2.86-1.14,2,2,0,0,0,2.15-2.21.86.86,0,1,1,1.71-.11,3.74,3.74,0,0,1-1.05,2.9,3.78,3.78,0,0,1-2.86,1.14,2.07,2.07,0,0,0-1.58.61,2.09,2.09,0,0,0-.56,1.6,3.84,3.84,0,0,1-1,2.91A3.79,3.79,0,0,1,30.51,428.58Z"/><path class="c" d="M135.07,436.66a4,4,0,0,1-3.9-3.14,2.18,2.18,0,0,0-2.88-1.6A4,4,0,0,1,123,429a.93.93,0,0,1,.69-1.11.91.91,0,0,1,1.1.69,2.24,2.24,0,0,0,1.08,1.45,2.19,2.19,0,0,0,1.81.14,4,4,0,0,1,5.26,2.92,2.17,2.17,0,0,0,2.88,1.6.93.93,0,0,1,1.17.58.92.92,0,0,1-.58,1.16A4,4,0,0,1,135.07,436.66Z"/><path class="c" d="M200.57,366.58a4.8,4.8,0,0,1-1.69-.31,1.06,1.06,0,0,1-.63-1.36,1.07,1.07,0,0,1,1.37-.64,2.51,2.51,0,0,0,3.38-1.76,4.66,4.66,0,0,1,6.18-3.22,2.51,2.51,0,0,0,3.39-1.76,1.07,1.07,0,1,1,2.06.55,4.65,4.65,0,0,1-6.18,3.21,2.53,2.53,0,0,0-3.39,1.77,4.69,4.69,0,0,1-2.36,3A4.56,4.56,0,0,1,200.57,366.58Z"/><path class="c" d="M97.19,399.4a.79.79,0,0,1-.77-.62.8.8,0,0,1,.59-.95l6.83-1.57a.78.78,0,0,1,1,.59.79.79,0,0,1-.59.95l-6.83,1.58Z"/><path class="c" d="M238.92,339.23a.76.76,0,0,1-.17-1.49l6.46-1.55a.75.75,0,1,1,.35,1.46l-6.46,1.55A.57.57,0,0,1,238.92,339.23Z"/><polygon class="c" points="280.43 375.82 271.37 374.12 273.08 365.06 274.87 365.4 273.49 372.67 280.76 374.04 280.43 375.82"/><polygon class="c" points="205.14 328.49 196.29 321.07 197.75 319.33 204.85 325.29 210.81 318.18 212.55 319.64 205.14 328.49"/><polygon class="c" points="212.53 422.39 211.4 415.9 204.91 417.04 204.63 415.44 212.71 414.04 214.12 422.11 212.53 422.39"/><polygon class="c" points="326.5 332.33 319.42 326.72 320.53 325.32 326.21 329.83 330.72 324.14 332.11 325.25 326.5 332.33"/><path class="c" d="M562.69,403.32l-.2-1.53a4.38,4.38,0,1,0-1.14-8.68l-.2-1.53a5.92,5.92,0,0,1,1.54,11.74Z"/><path class="c" d="M428,332.6a4.55,4.55,0,0,1-.26-9.1l.07,1.19a3.37,3.37,0,0,0-2,5.88,3.41,3.41,0,0,0,2.44.84l.07,1.18Z"/><path class="c" d="M348.52,350.08a4.69,4.69,0,0,1-4-2.19l1-.65a3.48,3.48,0,0,0,2.17,1.53,3.38,3.38,0,0,0,2.61-.45,3.47,3.47,0,0,0,1.09-4.78l1-.65a4.69,4.69,0,0,1-4,7.19Z"/><path class="c" d="M638.86,376.45a6.09,6.09,0,0,1,9.51-7.61l-1.24,1a4.52,4.52,0,0,0-6.33-.7,4.45,4.45,0,0,0-1.66,3,4.5,4.5,0,0,0,1,3.31Z"/><path class="c" d="M605.37,330.45h0a3.62,3.62,0,0,1,1.64,6.86,3.56,3.56,0,0,1-1.63.39,3.63,3.63,0,0,1,0-7.25m0-1.61a5.24,5.24,0,0,0,0,10.48,5.16,5.16,0,0,0,2.36-.57,5.24,5.24,0,0,0-2.37-9.91Z"/><path class="c" d="M398.73,432.19h0l.3,0a2.91,2.91,0,0,1-.3,5.81l-.3,0a2.91,2.91,0,0,1,.3-5.81m0-1.29a4.21,4.21,0,0,0-.43,8.39l.44,0a4.21,4.21,0,0,0,.44-8.4,3.39,3.39,0,0,0-.45,0Z"/><path class="c" d="M629,410.13a3,3,0,0,1,.84,6,3,3,0,0,1-.85.12,3,3,0,0,1-.84-6,3,3,0,0,1,.85-.12m0-1.36a4.35,4.35,0,0,0-1.23.17,4.41,4.41,0,0,0,1.22,8.64,4.36,4.36,0,0,0,1.23-.18,4.4,4.4,0,0,0-1.22-8.63Z"/><path class="c" d="M476,327.28h0a4.59,4.59,0,0,1,1.89.41,4.56,4.56,0,0,1,2.26,6A4.58,4.58,0,0,1,476,336.4a4.4,4.4,0,0,1-1.88-.41,4.56,4.56,0,0,1,1.89-8.71m0-2a6.61,6.61,0,1,0,2.73.6,6.48,6.48,0,0,0-2.73-.6Z"/><path class="c" d="M492,387.88h0a5,5,0,0,1,1.7,9.68,5,5,0,0,1-1.7.3,5,5,0,0,1-4.69-3.28,4.92,4.92,0,0,1,.17-3.82,5,5,0,0,1,4.52-2.88m0-2.22a7.34,7.34,0,0,0-2.47.43,7.22,7.22,0,0,0,2.47,14,7.4,7.4,0,0,0,2.47-.44,7.21,7.21,0,0,0-2.47-14Z"/><path class="c" d="M455.09,367.23l4.61,5.09-6.84.63-4.61-5.09,6.84-.63m.69-1.76-11,1,7.44,8.23,11.06-1-7.45-8.23Z"/><path class="c" d="M399.47,363.73l5,1.77,1.59,5.05-5-1.76-1.58-5.06m-2-2.09L400,369.8l8.07,2.85-2.57-8.17-8.07-2.84Z"/><path class="c" d="M376.35,324.86l6.72,7-1.56,9.57-6.72-7,1.56-9.57m-1.59-5.11-2.52,15.48,10.86,11.3,2.52-15.48-10.86-11.3Z"/><path class="c" d="M356.78,391.75a1.17,1.17,0,0,1-1.06-1.66,5.06,5.06,0,0,1,7.25-2.25,2.81,2.81,0,0,0,2.27.29,2.78,2.78,0,0,0,1.7-1.53,5.06,5.06,0,0,1,7.24-2.25,1.16,1.16,0,0,1,.42,1.59,1.15,1.15,0,0,1-1.59.41,2.75,2.75,0,0,0-4,1.24,5.1,5.1,0,0,1-3.12,2.76,5,5,0,0,1-4.12-.51,2.81,2.81,0,0,0-2.27-.29,2.78,2.78,0,0,0-1.7,1.53A1.17,1.17,0,0,1,356.78,391.75Z"/><path class="c" d="M584.77,441.54h0a.77.77,0,0,1-.73-.79,1.79,1.79,0,0,0-1.93-1.89,3.31,3.31,0,0,1-3.54-3.47,1.78,1.78,0,0,0-1.94-1.89.78.78,0,0,1-.79-.72.75.75,0,0,1,.71-.8,3.38,3.38,0,0,1,2.55.94,3.31,3.31,0,0,1,1,2.53,1.81,1.81,0,0,0,.54,1.39,1.85,1.85,0,0,0,1.4.51,3.31,3.31,0,0,1,3.54,3.46A.76.76,0,0,1,584.77,441.54Z"/><path class="c" d="M350.18,431.08h-.13a.86.86,0,0,1-.84-.88.88.88,0,0,1,.89-.84,2,2,0,0,0,1.58-.61,2.08,2.08,0,0,0,.56-1.6,3.76,3.76,0,0,1,3.92-4,2,2,0,0,0,2.14-2.21.86.86,0,0,1,1.72-.11,3.75,3.75,0,0,1-3.91,4,2,2,0,0,0-1.58.62A2.07,2.07,0,0,0,354,427a3.76,3.76,0,0,1-3.78,4Z"/><path class="c" d="M454.74,439.15a3.89,3.89,0,0,1-1.93-.5,4,4,0,0,1-2-2.64,2.26,2.26,0,0,0-1.08-1.46,2.23,2.23,0,0,0-1.81-.14,4,4,0,0,1-5.26-2.92.92.92,0,1,1,1.79-.42,2.17,2.17,0,0,0,2.88,1.6,4,4,0,0,1,5.27,2.92,2.17,2.17,0,0,0,2.88,1.59.92.92,0,0,1,.59,1.75A4.3,4.3,0,0,1,454.74,439.15Z"/><path class="c" d="M520.24,369.08a5,5,0,0,1-1.69-.31,1.07,1.07,0,0,1-.63-1.37,1.06,1.06,0,0,1,1.37-.63,2.57,2.57,0,0,0,2.09-.11,2.54,2.54,0,0,0,1.29-1.66,4.69,4.69,0,0,1,2.37-3,4.64,4.64,0,0,1,3.81-.21,2.57,2.57,0,0,0,2.09-.11,2.54,2.54,0,0,0,1.29-1.66,1.08,1.08,0,0,1,1.31-.75,1.06,1.06,0,0,1,.76,1.3,4.67,4.67,0,0,1-6.19,3.22,2.53,2.53,0,0,0-3.38,1.76,4.64,4.64,0,0,1-2.37,3A4.53,4.53,0,0,1,520.24,369.08Z"/><path class="c" d="M416.86,401.89a.79.79,0,0,1-.18-1.56l6.83-1.58a.79.79,0,1,1,.35,1.54L417,401.87Z"/><path class="c" d="M558.59,341.72a.75.75,0,0,1-.18-1.48l6.47-1.56a.75.75,0,0,1,.35,1.46l-6.46,1.56Z"/><polygon class="c" points="600.1 378.32 591.04 376.61 592.75 367.55 594.53 367.89 593.16 375.16 600.43 376.53 600.1 378.32"/><polygon class="c" points="524.8 330.98 515.96 323.57 517.42 321.83 524.52 327.78 530.48 320.68 532.22 322.14 524.8 330.98"/><polygon class="c" points="532.2 424.88 531.07 418.4 524.58 419.53 524.3 417.94 532.38 416.53 533.79 424.61 532.2 424.88"/><polygon class="c" points="646.17 334.82 639.09 329.21 640.2 327.82 645.88 332.32 650.38 326.64 651.78 327.74 646.17 334.82"/><path class="c" d="M243,88.78l-.2-1.53a4.31,4.31,0,0,0,2.9-1.67,4.38,4.38,0,0,0,.87-3.24,4.31,4.31,0,0,0-1.67-2.9,4.38,4.38,0,0,0-3.24-.87l-.2-1.53A5.92,5.92,0,1,1,243,88.78Z"/><path class="c" d="M96.79,251.71a8.83,8.83,0,0,1-2.32-.32,8.36,8.36,0,0,1-5.06-4l1.92-1.08a6.24,6.24,0,1,0,10.9-6.07l1.92-1.08a8.44,8.44,0,0,1-7.36,12.56Z"/><path class="c" d="M292.59,200.29a8.6,8.6,0,1,1,11.56-12.73l-1.5,1.66a6.36,6.36,0,0,0-8.55,9.41Z"/><path class="c" d="M108.32,18.07A4.56,4.56,0,0,1,108.06,9l.07,1.19a3.31,3.31,0,0,0-2.32,1.13,3.37,3.37,0,0,0-.84,2.43,3.37,3.37,0,0,0,3.56,3.16l.07,1.19Z"/><path class="c" d="M331,171.4l-.94-1.28a4.52,4.52,0,0,0,1-6.31,4.53,4.53,0,0,0-6.31-1l-.94-1.28a6.1,6.1,0,0,1,8.53,1.33A6.11,6.11,0,0,1,331,171.4Z"/><path class="c" d="M200.11,203l-1.3-2a6.81,6.81,0,0,0-7.36-11.45l-1.3-2a9.21,9.21,0,0,1,10,15.49Z"/><path class="c" d="M28.85,35.54a4.68,4.68,0,0,1-4-2.19l1-.65a3.48,3.48,0,0,0,4.78,1.09A3.48,3.48,0,0,0,31.78,29l1-.66a4.69,4.69,0,0,1-4,7.19Z"/><path class="c" d="M319.19,61.91a6.09,6.09,0,0,1,.95-8.56,6.1,6.1,0,0,1,8.56,1l-1.24,1a4.5,4.5,0,1,0-7,5.62Z"/><path class="c" d="M152.92,199.54a9.61,9.61,0,1,1,12.23-14.83l-1.59,1.93a7.11,7.11,0,1,0-9.05,11Z"/><path class="c" d="M285.7,15.92h0a3.62,3.62,0,0,1,3.45,4.75,3.67,3.67,0,0,1-3.44,2.5,3.63,3.63,0,0,1-1.64-6.86,3.56,3.56,0,0,1,1.63-.39m0-1.62a5.16,5.16,0,0,0-2.36.57,5.24,5.24,0,0,0,2.37,9.91,5.13,5.13,0,0,0,2.36-.57,5.24,5.24,0,0,0-2.37-9.91Z"/><path class="c" d="M79.06,117.66h.31a2.93,2.93,0,0,1,2,1.07,2.88,2.88,0,0,1,.63,2.13,2.91,2.91,0,0,1-2.89,2.61h-.31a2.91,2.91,0,0,1,.3-5.81m0-1.3a4.21,4.21,0,0,0-.44,8.4l.45,0a4.21,4.21,0,0,0,.43-8.4l-.44,0Z"/><path class="c" d="M309.29,95.59a3,3,0,0,1,.85,6,3.13,3.13,0,0,1-.86.12,3,3,0,0,1,0-6.09m0-1.36a4.41,4.41,0,0,0,0,8.81,4.41,4.41,0,1,0,0-8.81Z"/><path class="c" d="M156.34,12.74h0a4.56,4.56,0,0,1,4.27,3,4.5,4.5,0,0,1-.12,3.49,4.56,4.56,0,1,1-4.15-6.45m0-2a6.6,6.6,0,1,0,2.73.59,6.58,6.58,0,0,0-2.73-.59Z"/><path class="c" d="M243.9,150.76h0a2.9,2.9,0,0,1,.58.05,3.35,3.35,0,0,1-.57,6.65,3.79,3.79,0,0,1-.58-.05,3.35,3.35,0,0,1,.57-6.65m0-1.5a4.85,4.85,0,0,0-.82,9.62,4.73,4.73,0,0,0,.83.07,4.85,4.85,0,0,0,.82-9.62,5.93,5.93,0,0,0-.83-.07Z"/><path class="c" d="M76.17,157.9h0a3.94,3.94,0,0,1,3.92,3.48,3.94,3.94,0,0,1-3.92,4.42,4,4,0,0,1,0-7.9m0-1.76a5.71,5.71,0,0,0-3.52,10.21,5.72,5.72,0,0,0,8-1,5.72,5.72,0,0,0-4.49-9.24Z"/><path class="c" d="M39.11,291.79h0a2.76,2.76,0,1,1-2.72,2.38,2.75,2.75,0,0,1,2.72-2.38m0-1.23a4,4,0,1,0,3.17,1.57,4,4,0,0,0-3.17-1.57Z"/><path class="c" d="M172.32,73.35h0A5,5,0,0,1,174,83a5,5,0,0,1-6.4-3,5,5,0,0,1,4.69-6.69m0-2.23a7.12,7.12,0,0,0-2.47.44,7.21,7.21,0,1,0,2.47-.44Z"/><path class="c" d="M173.88,281.94h0a2.85,2.85,0,0,1,2.55,4.1,2.82,2.82,0,0,1-2.55,1.59,2.91,2.91,0,0,1-1.26-.29,2.85,2.85,0,0,1-1.29-3.81,2.82,2.82,0,0,1,2.55-1.59m0-1.26a4.11,4.11,0,1,0,1.82.42,4.12,4.12,0,0,0-1.82-.42Z"/><path class="c" d="M135.43,52.69l4.61,5.1-6.85.63-4.6-5.1,6.84-.63m.69-1.76-11.06,1,7.45,8.24,11.05-1-7.44-8.23Z"/><path class="c" d="M33.29,216.39l4.72,5-1.16,6.77-4.72-5,1.16-6.77m-1.09-3.63-1.88,11,7.62,8.07,1.88-10.95-7.62-8.07Z"/><path class="c" d="M285.47,286.75l9.15,4.53,1.87,10-9.15-4.53-1.87-10m-3.39-4.48,3,16.22,14.79,7.31-3-16.21-14.78-7.32Z"/><path class="c" d="M79.8,49.2l5,1.76,1.59,5-5-1.76-1.59-5m-2-2.1,2.57,8.17,8.07,2.84L85.84,50,77.77,47.1Z"/><path class="c" d="M176.21,221.39l.71,6.05-4.4,4.2-.72-6,4.41-4.2m1.13-3.15L170.23,225l1.16,9.76L178.5,228l-1.16-9.76Z"/><path class="c" d="M113.39,158.42l4.83,2.67.75,5.46-4.82-2.67-.76-5.46m-1.72-2.51,1.23,8.83,7.79,4.32-1.22-8.83-7.8-4.32Z"/><path class="c" d="M133.44,297.82l-2.26,4.62-5.05,1,2.26-4.62,5.05-1m2.25-1.72-8.16,1.57-3.65,7.46,8.16-1.56,3.65-7.47Z"/><path class="c" d="M187.56,126.49l-5.7,8.55-10.25.58,5.69-8.55,10.26-.58m4.91-2.81-16.57.93-9.21,13.82,16.58-.93,9.2-13.82Z"/><path class="c" d="M56.68,10.32l6.72,7-1.55,9.58-6.73-7,1.56-9.58m-1.59-5.1L52.57,20.69,63.44,32,66,16.52,55.09,5.22Z"/><path class="c" d="M37.11,77.21a1.21,1.21,0,0,1-.49-.11,1.16,1.16,0,0,1-.56-1.54A5.07,5.07,0,0,1,43.3,73.3a2.75,2.75,0,0,0,4-1.23,5.06,5.06,0,0,1,7.25-2.25,1.16,1.16,0,0,1-1.18,2,2.75,2.75,0,0,0-2.26-.29,2.81,2.81,0,0,0-1.71,1.52,5.06,5.06,0,0,1-7.24,2.26,2.73,2.73,0,0,0-4,1.23A1.16,1.16,0,0,1,37.11,77.21Z"/><path class="c" d="M265.1,127h0a.76.76,0,0,1-.73-.78,1.77,1.77,0,0,0-.53-1.39,1.8,1.8,0,0,0-1.4-.51,3.3,3.3,0,0,1-3.54-3.46,1.79,1.79,0,0,0-1.93-1.9.77.77,0,0,1-.8-.71.75.75,0,0,1,.71-.8,3.32,3.32,0,0,1,2.55.93,3.36,3.36,0,0,1,1,2.53,1.82,1.82,0,0,0,.53,1.39,1.86,1.86,0,0,0,1.4.51,3.39,3.39,0,0,1,2.56.94,3.31,3.31,0,0,1,1,2.53A.77.77,0,0,1,265.1,127Z"/><path class="c" d="M248.75,272.15a.69.69,0,0,1-.69-.68.7.7,0,0,1,.68-.7,1.62,1.62,0,0,0,1.23-.54,1.67,1.67,0,0,0,.4-1.3,3,3,0,0,1,3-3.36,1.66,1.66,0,0,0,1.24-.54,1.71,1.71,0,0,0,.39-1.3.69.69,0,0,1,1.37-.14,3,3,0,0,1-3,3.36,1.62,1.62,0,0,0-1.23.54,1.67,1.67,0,0,0-.4,1.3,3,3,0,0,1-3,3.36Z"/><path class="c" d="M71.67,213.47a1.09,1.09,0,0,1-.68-.24,4.72,4.72,0,0,1-.41-7,2.6,2.6,0,0,0,.76-2,2.57,2.57,0,0,0-1-1.88,4.71,4.71,0,0,1-.42-7,1.08,1.08,0,1,1,1.55,1.51,2.55,2.55,0,0,0,.23,3.86,4.72,4.72,0,0,1,.41,7.05,2.6,2.6,0,0,0-.77,2,2.64,2.64,0,0,0,1,1.88,1.07,1.07,0,0,1,.16,1.52A1,1,0,0,1,71.67,213.47Z"/><path class="c" d="M83.39,290a5.52,5.52,0,0,1-3.51-1.23,5.61,5.61,0,0,1-2-4.08,3,3,0,0,0-3.54-2.86,5.6,5.6,0,0,1-4.41-1.17,5.53,5.53,0,0,1-2-4.07,1.27,1.27,0,0,1,1.2-1.34,1.28,1.28,0,0,1,1.34,1.2,3,3,0,0,0,3.53,2.86,5.56,5.56,0,0,1,6.46,5.24,3,3,0,0,0,3.53,2.87,1.27,1.27,0,1,1,.38,2.51A5.46,5.46,0,0,1,83.39,290Z"/><path class="c" d="M30.51,116.54h-.13a.86.86,0,1,1,.06-1.72A2,2,0,0,0,32,114.2a2.06,2.06,0,0,0,.57-1.59,3.76,3.76,0,0,1,1.05-2.91,3.82,3.82,0,0,1,2.86-1.14,2,2,0,0,0,1.58-.61,2.11,2.11,0,0,0,.57-1.6.86.86,0,1,1,1.71-.1,3.76,3.76,0,0,1-3.91,4,2,2,0,0,0-1.58.61,2.09,2.09,0,0,0-.56,1.6,3.83,3.83,0,0,1-1,2.9A3.76,3.76,0,0,1,30.51,116.54Z"/><path class="c" d="M135.07,124.62a4,4,0,0,1-1.93-.5,4.05,4.05,0,0,1-2-2.65,2.21,2.21,0,0,0-1.08-1.45,2.17,2.17,0,0,0-1.8-.14A4,4,0,0,1,123,117a.92.92,0,0,1,1.79-.43,2.26,2.26,0,0,0,1.08,1.46,2.23,2.23,0,0,0,1.81.14,4,4,0,0,1,5.26,2.92,2.17,2.17,0,0,0,2.88,1.6.92.92,0,1,1,.59,1.74A4.31,4.31,0,0,1,135.07,124.62Z"/><path class="c" d="M38.68,165.54a1.11,1.11,0,0,1-.79-.33A4.84,4.84,0,0,1,38.3,158a2.62,2.62,0,0,0,1-1.93,2.7,2.7,0,0,0-.79-2,4.83,4.83,0,0,1,.41-7.24,1.12,1.12,0,0,1,1.57.16,1.11,1.11,0,0,1-.17,1.56,2.62,2.62,0,0,0-.22,4,4.84,4.84,0,0,1-.42,7.24,2.61,2.61,0,0,0-.22,4,1.12,1.12,0,0,1,0,1.57A1.09,1.09,0,0,1,38.68,165.54Z"/><path class="c" d="M200.57,54.54a4.8,4.8,0,0,1-1.69-.31,1.07,1.07,0,1,1,.74-2A2.51,2.51,0,0,0,203,50.47a4.66,4.66,0,0,1,6.18-3.22,2.59,2.59,0,0,0,2.1-.1,2.63,2.63,0,0,0,1.29-1.66,1.06,1.06,0,0,1,2.06.54,4.64,4.64,0,0,1-6.18,3.22A2.53,2.53,0,0,0,205.06,51a4.62,4.62,0,0,1-4.49,3.53Z"/><path class="c" d="M259.15,179.9a.63.63,0,0,1-.42-.17L254.62,176a.63.63,0,0,1,.85-.93l4.11,3.77a.62.62,0,0,1,0,.89A.61.61,0,0,1,259.15,179.9Z"/><path class="c" d="M124.57,210a.66.66,0,0,1-.5-.22l-3.89-4.41a.66.66,0,1,1,1-.88l3.9,4.41a.65.65,0,0,1-.06.93A.63.63,0,0,1,124.57,210Z"/><path class="c" d="M97.19,87.35a.78.78,0,0,1-.77-.61.79.79,0,0,1,.59-.95l6.83-1.58a.8.8,0,0,1,.36,1.55l-6.83,1.57A.55.55,0,0,1,97.19,87.35Z"/><path class="c" d="M238.92,27.18a.75.75,0,0,1-.17-1.48l6.46-1.55a.75.75,0,1,1,.35,1.46l-6.46,1.55A.55.55,0,0,1,238.92,27.18Z"/><path class="c" d="M324.83,279.24a.69.69,0,0,1-.67-.53l-1.42-5.93a.69.69,0,0,1,1.35-.32l1.41,5.93a.69.69,0,0,1-.51.83Z"/><path class="c" d="M213.45,286a.67.67,0,0,1-.61-.39l-2.4-5.4a.67.67,0,0,1,.34-.88.66.66,0,0,1,.88.34l2.4,5.39a.67.67,0,0,1-.61.94Z"/><path class="c" d="M210.82,243.83a1.12,1.12,0,0,1-.06-2.23l9.85-.58a1.12,1.12,0,0,1,1.18,1,1.13,1.13,0,0,1-1,1.18l-9.85.58Z"/><path class="c" d="M146.3,257.26a.6.6,0,0,1-.57-.42l-1.48-5a.59.59,0,0,1,1.14-.33l1.48,5a.6.6,0,0,1-.4.74A.5.5,0,0,1,146.3,257.26Z"/><path class="c" d="M330.66,221.71h-.12l-8.59-1a1,1,0,0,1,.24-1.94l8.58,1a1,1,0,0,1-.11,1.94Z"/><polygon class="c" points="288.21 154.76 286.41 152.97 295.5 143.84 304.63 152.92 302.84 154.72 295.51 147.43 288.21 154.76"/><polygon class="c" points="248.89 226.15 247.26 225.22 251.06 218.57 244.41 214.77 245.34 213.13 253.62 217.87 248.89 226.15"/><polygon class="c" points="195.97 314.76 191.04 307.87 192.4 306.9 196.36 312.44 201.9 308.47 202.87 309.83 195.97 314.76"/><polygon class="c" points="280.43 63.78 271.37 62.07 273.08 53.02 274.87 53.35 273.49 60.62 280.76 62 280.43 63.78"/><polygon class="c" points="205.14 16.45 196.29 9.03 197.75 7.29 204.85 13.24 210.81 6.14 212.55 7.6 205.14 16.45"/><polygon class="c" points="212.53 110.35 211.4 103.86 204.91 104.99 204.63 103.4 212.71 101.99 214.12 110.07 212.53 110.35"/><polygon class="c" points="326.5 20.28 319.42 14.67 320.53 13.28 326.21 17.79 330.72 12.1 332.11 13.21 326.5 20.28"/><polygon class="c" points="249.8 310.23 246.35 303.76 239.88 307.21 239.03 305.63 247.09 301.33 251.39 309.39 249.8 310.23"/><polygon class="c" points="289.88 239.23 281.02 230.45 282.75 228.7 289.87 235.76 296.92 228.64 298.67 230.37 289.88 239.23"/><path class="c" d="M562.69,91.28l-.2-1.54a4.37,4.37,0,0,0,3.77-4.9,4.37,4.37,0,0,0-4.91-3.78l-.2-1.53a5.92,5.92,0,0,1,6.64,5.11,5.94,5.94,0,0,1-5.1,6.64Z"/><path class="c" d="M416.46,254.21a8.51,8.51,0,0,1-7.39-4.34L411,248.8a6.24,6.24,0,0,0,8.49,2.41,6.26,6.26,0,0,0,2.41-8.49l1.92-1.07a8.46,8.46,0,0,1-7.36,12.56Z"/><path class="c" d="M612.26,202.79a8.6,8.6,0,0,1,11.56-12.74l-1.51,1.66a6.36,6.36,0,0,0-8.54,9.42Z"/><path class="c" d="M428,20.56a4.55,4.55,0,0,1-.26-9.1l.07,1.18a3.39,3.39,0,0,0-2.32,1.13,3.36,3.36,0,0,0,2.72,5.59l.07,1.19Z"/><path class="c" d="M650.63,173.9l-.94-1.29a4.51,4.51,0,0,0-5.32-7.29l-.94-1.29a6.1,6.1,0,0,1,9.63,5.88A6,6,0,0,1,650.63,173.9Z"/><path class="c" d="M519.78,205.53l-1.3-2a6.8,6.8,0,1,0-7.36-11.44l-1.3-2a9.2,9.2,0,0,1,10,15.48Z"/><path class="c" d="M348.52,38a4.68,4.68,0,0,1-4-2.2l1-.65a3.47,3.47,0,0,0,5.87-3.69l1-.65A4.69,4.69,0,0,1,351,37.32,4.75,4.75,0,0,1,348.52,38Z"/><path class="c" d="M638.86,64.41a6.09,6.09,0,0,1,9.51-7.61l-1.24,1a4.51,4.51,0,0,0-6.33-.7,4.49,4.49,0,0,0-.7,6.32Z"/><path class="c" d="M472.58,202a9.61,9.61,0,0,1,12.24-14.83l-1.6,1.94a7.09,7.09,0,0,0-10,1,7.13,7.13,0,0,0,1,10Z"/><path class="c" d="M605.37,18.41h0A3.63,3.63,0,0,1,607,25.27a3.56,3.56,0,0,1-1.63.39,3.62,3.62,0,0,1-1.64-6.86,3.56,3.56,0,0,1,1.63-.39m0-1.61a5.24,5.24,0,1,0,4.68,2.87,5.24,5.24,0,0,0-4.68-2.87Z"/><path class="c" d="M398.73,120.15h0l.3,0a2.91,2.91,0,0,1-.3,5.8h-.3a2.91,2.91,0,0,1,.3-5.81m0-1.3a4.21,4.21,0,0,0-.43,8.4,3.31,3.31,0,0,0,.44,0,4.21,4.21,0,0,0,.44-8.39,3.4,3.4,0,0,0-.45,0Z"/><path class="c" d="M629,98.08a3.07,3.07,0,0,1,2.92,2.2,3,3,0,0,1-2.08,3.77,2.7,2.7,0,0,1-.85.13,3.05,3.05,0,0,1-.84-6,3,3,0,0,1,.85-.12m0-1.36a4.36,4.36,0,0,0-1.23.18,4.41,4.41,0,0,0,1.22,8.64,4.36,4.36,0,0,0,1.23-.18A4.41,4.41,0,0,0,629,96.72Z"/><path class="c" d="M476,15.24h0a4.44,4.44,0,0,1,1.89.41,4.56,4.56,0,0,1,2.26,6A4.56,4.56,0,1,1,476,15.24m0-2a6.59,6.59,0,0,0-2.73,12.6,6.43,6.43,0,0,0,2.72.6,6.6,6.6,0,1,0,0-13.2Z"/><path class="c" d="M563.57,153.25h0a3.66,3.66,0,0,1,.57.05,3.35,3.35,0,0,1-.56,6.65,3.79,3.79,0,0,1-.58,0,3.35,3.35,0,0,1,.57-6.65m0-1.49a4.84,4.84,0,0,0-.82,9.61,4.67,4.67,0,0,0,.83.08,4.85,4.85,0,0,0,.82-9.62,4.73,4.73,0,0,0-.83-.07Z"/><path class="c" d="M395.84,160.4h0a4,4,0,0,1,3.92,3.47,4,4,0,0,1-3.93,4.43,3.91,3.91,0,0,1-2.43-.85,3.95,3.95,0,0,1,2.44-7m0-1.77a5.72,5.72,0,0,0,0,11.43,5.72,5.72,0,0,0,0-11.43Z"/><path class="c" d="M358.78,294.28h0a2.76,2.76,0,0,1,2.73,3.13,2.77,2.77,0,0,1-1.06,1.82,2.76,2.76,0,0,1-3.86-.53,2.79,2.79,0,0,1-.54-2,2.79,2.79,0,0,1,2.73-2.39m0-1.22a4,4,0,1,0,3.17,1.57,4,4,0,0,0-3.17-1.57Z"/><path class="c" d="M492,75.84h0a5,5,0,0,1,1.7,9.67,4.74,4.74,0,0,1-1.7.31,5,5,0,0,1-4.69-3.28,4.92,4.92,0,0,1,.17-3.82A5,5,0,0,1,492,75.84m0-2.23a7.36,7.36,0,0,0-2.47.44,7.19,7.19,0,1,0,2.47-.44Z"/><path class="c" d="M493.55,284.44h0a2.83,2.83,0,0,1,1.25.29,2.85,2.85,0,0,1,1.3,3.81,2.84,2.84,0,0,1-2.56,1.59,2.77,2.77,0,0,1-1.25-.3,2.84,2.84,0,0,1,1.26-5.39m0-1.27a4.11,4.11,0,0,0-1.82,7.8,4,4,0,0,0,1.81.42,4.1,4.1,0,0,0,1.82-7.79,4,4,0,0,0-1.81-.43Z"/><path class="c" d="M455.09,55.19l4.61,5.09-6.84.63-4.61-5.1,6.84-.62m.69-1.77-11,1,7.44,8.23,11.06-1-7.45-8.24Z"/><path class="c" d="M353,218.88l4.72,5-1.16,6.78-4.72-5,1.16-6.77m-1.09-3.62L350,226.2l7.62,8.07,1.88-10.94-7.62-8.07Z"/><path class="c" d="M605.14,289.25l9.15,4.53,1.86,10L607,299.28l-1.86-10m-3.39-4.49,3,16.22,14.79,7.32-3-16.22-14.78-7.32Z"/><path class="c" d="M399.47,51.69l5,1.76,1.59,5-5-1.76-1.58-5.05m-2-2.1L400,57.76l8.07,2.84-2.57-8.16-8.07-2.85Z"/><path class="c" d="M495.87,223.89l.72,6-4.4,4.2-.72-6,4.4-4.2m1.14-3.16-7.12,6.79,1.16,9.76,7.12-6.78L497,220.73Z"/><path class="c" d="M433.06,160.91l4.82,2.67.76,5.46-4.82-2.67-.76-5.46m-1.72-2.5,1.22,8.82,7.8,4.32-1.22-8.83-7.8-4.31Z"/><path class="c" d="M453.11,300.32l-2.26,4.62-5.05,1,2.26-4.62,5.05-1m2.25-1.72-8.17,1.56-3.64,7.46,8.16-1.56,3.65-7.46Z"/><path class="c" d="M507.22,129l-5.69,8.56-10.26.57,5.7-8.55,10.25-.58m4.92-2.81-16.58.93-9.2,13.82,16.58-.93,9.2-13.82Z"/><path class="c" d="M376.35,12.81l6.72,7-1.56,9.57-6.72-7,1.56-9.58m-1.59-5.1-2.52,15.47,10.86,11.3L385.62,19,374.76,7.71Z"/><path class="c" d="M356.78,79.7a1,1,0,0,1-.49-.11,1.15,1.15,0,0,1-.57-1.54,5.12,5.12,0,0,1,3.12-2.76,5.06,5.06,0,0,1,4.13.51,2.81,2.81,0,0,0,2.27.29,2.84,2.84,0,0,0,1.7-1.53,5.1,5.1,0,0,1,3.12-2.76,5,5,0,0,1,4.12.51,1.16,1.16,0,1,1-1.17,2,2.75,2.75,0,0,0-4,1.24,5.08,5.08,0,0,1-7.24,2.25,2.75,2.75,0,0,0-4,1.23A1.15,1.15,0,0,1,356.78,79.7Z"/><path class="c" d="M584.77,129.5h0a.77.77,0,0,1-.73-.79,1.84,1.84,0,0,0-.53-1.39,1.8,1.8,0,0,0-1.4-.5,3.38,3.38,0,0,1-2.55-.94,3.32,3.32,0,0,1-1-2.53A1.84,1.84,0,0,0,578,122a1.88,1.88,0,0,0-1.41-.51.76.76,0,0,1-.79-.71.75.75,0,0,1,.71-.8,3.34,3.34,0,0,1,2.55.94,3.3,3.3,0,0,1,1,2.53,1.81,1.81,0,0,0,.54,1.39,1.84,1.84,0,0,0,1.4.5,3.31,3.31,0,0,1,3.54,3.47A.76.76,0,0,1,584.77,129.5Z"/><path class="c" d="M568.41,274.64a.69.69,0,0,1,0-1.37,1.66,1.66,0,0,0,1.23-.55,1.62,1.62,0,0,0,.39-1.29,3,3,0,0,1,3-3.37,1.63,1.63,0,0,0,1.24-.54,1.69,1.69,0,0,0,.39-1.29.69.69,0,0,1,.61-.76.68.68,0,0,1,.75.61,3,3,0,0,1-3,3.36,1.62,1.62,0,0,0-1.63,1.84,3,3,0,0,1-3,3.36Z"/><path class="c" d="M391.34,216a1.09,1.09,0,0,1-.68-.24,4.72,4.72,0,0,1-.42-7.06,2.55,2.55,0,0,0-.23-3.86,4.72,4.72,0,0,1-.41-7.05,1.08,1.08,0,1,1,1.54,1.51,2.55,2.55,0,0,0,.23,3.86,4.71,4.71,0,0,1,.42,7.05,2.62,2.62,0,0,0-.77,2,2.58,2.58,0,0,0,1,1.88,1.08,1.08,0,0,1,.16,1.52A1.06,1.06,0,0,1,391.34,216Z"/><path class="c" d="M403.06,292.52a5.52,5.52,0,0,1-5.55-5.3,3,3,0,0,0-3.54-2.87,5.55,5.55,0,0,1-6.46-5.23,1.28,1.28,0,0,1,1.2-1.35,1.27,1.27,0,0,1,1.34,1.2,3.1,3.1,0,0,0,1.11,2.24,3.07,3.07,0,0,0,2.43.63,5.55,5.55,0,0,1,6.46,5.23,3,3,0,0,0,1.1,2.24,3.07,3.07,0,0,0,2.43.63,1.27,1.27,0,1,1,.38,2.52A6.92,6.92,0,0,1,403.06,292.52Z"/><path class="c" d="M350.18,119h-.13a.86.86,0,1,1,.05-1.72,2,2,0,0,0,1.58-.61,2.09,2.09,0,0,0,.56-1.6,3.76,3.76,0,0,1,3.92-4,2.13,2.13,0,0,0,1.58-.61,2.09,2.09,0,0,0,.56-1.6.86.86,0,1,1,1.72-.11,3.74,3.74,0,0,1-1,2.9,3.78,3.78,0,0,1-2.86,1.14,2,2,0,0,0-1.58.61A2.1,2.1,0,0,0,354,115a3.74,3.74,0,0,1-3.78,4Z"/><path class="c" d="M454.74,127.11a4,4,0,0,1-3.9-3.14,2.26,2.26,0,0,0-1.08-1.46,2.23,2.23,0,0,0-1.81-.14,4,4,0,0,1-5.26-2.92.92.92,0,1,1,1.79-.42,2.17,2.17,0,0,0,2.88,1.59,4,4,0,0,1,5.27,2.92,2.17,2.17,0,0,0,2.88,1.6.92.92,0,0,1,.59,1.75A4.3,4.3,0,0,1,454.74,127.11Z"/><path class="c" d="M358.35,168a1.09,1.09,0,0,1-.79-.33,4.83,4.83,0,0,1,.41-7.24,2.63,2.63,0,0,0,.23-4,4.83,4.83,0,0,1,.41-7.24A1.11,1.11,0,0,1,360,151a2.62,2.62,0,0,0-1,1.92,2.67,2.67,0,0,0,.79,2,4.9,4.9,0,0,1,1.43,3.71,4.85,4.85,0,0,1-1.84,3.53,2.63,2.63,0,0,0-.23,4,1.1,1.1,0,0,1-.79,1.88Z"/><path class="c" d="M520.24,57a5,5,0,0,1-1.69-.3,1.07,1.07,0,0,1-.63-1.37,1.05,1.05,0,0,1,1.37-.63,2.57,2.57,0,0,0,2.09-.11A2.54,2.54,0,0,0,522.67,53a4.66,4.66,0,0,1,6.18-3.22A2.51,2.51,0,0,0,532.23,48a1.07,1.07,0,1,1,2.07.55,4.65,4.65,0,0,1-6.19,3.21,2.52,2.52,0,0,0-3.38,1.77,4.67,4.67,0,0,1-2.37,3A4.52,4.52,0,0,1,520.24,57Z"/><path class="c" d="M578.82,182.39a.61.61,0,0,1-.42-.16l-4.12-3.78a.64.64,0,0,1,0-.89.65.65,0,0,1,.9,0l4.11,3.78a.63.63,0,0,1,0,.89A.67.67,0,0,1,578.82,182.39Z"/><path class="c" d="M444.24,212.48a.66.66,0,0,1-.5-.23l-3.9-4.41a.67.67,0,0,1,1-.88l3.9,4.41a.67.67,0,0,1-.06.94A.7.7,0,0,1,444.24,212.48Z"/><path class="c" d="M416.86,89.85a.8.8,0,0,1-.18-1.57l6.83-1.57a.78.78,0,0,1,.95.59.79.79,0,0,1-.6,1L417,89.83Z"/><path class="c" d="M558.59,29.68a.75.75,0,0,1-.73-.58.76.76,0,0,1,.55-.91l6.47-1.55a.75.75,0,0,1,.35,1.46l-6.46,1.56Z"/><path class="c" d="M644.5,281.73a.69.69,0,0,1-.67-.52l-1.42-5.93a.69.69,0,1,1,1.34-.33l1.42,5.94a.69.69,0,0,1-.51.83Z"/><path class="c" d="M533.12,288.44a.65.65,0,0,1-.61-.39l-2.4-5.39a.67.67,0,1,1,1.22-.55l2.4,5.4a.68.68,0,0,1-.34.88A.65.65,0,0,1,533.12,288.44Z"/><path class="c" d="M530.49,246.32a1.12,1.12,0,0,1-.07-2.23l9.86-.58a1.12,1.12,0,0,1,1.17,1.05,1.1,1.1,0,0,1-1,1.18l-9.86.58Z"/><path class="c" d="M466,259.76a.6.6,0,0,1-.57-.43l-1.48-5a.6.6,0,0,1,.4-.74.61.61,0,0,1,.74.4l1.48,5a.59.59,0,0,1-.4.73Z"/><path class="c" d="M650.32,224.21h-.11l-8.59-1a1,1,0,0,1,.23-1.94l8.59,1a1,1,0,0,1,.85,1.09A1,1,0,0,1,650.32,224.21Z"/><polygon class="c" points="607.88 157.26 606.08 155.47 615.16 146.33 624.3 155.42 622.51 157.22 615.17 149.92 607.88 157.26"/><polygon class="c" points="568.56 228.64 566.92 227.71 570.73 221.06 564.08 217.26 565.01 215.63 573.29 220.37 568.56 228.64"/><polygon class="c" points="515.64 317.26 510.71 310.36 512.07 309.39 516.03 314.93 521.56 310.97 522.53 312.32 515.64 317.26"/><polygon class="c" points="600.1 66.28 591.04 64.56 592.75 55.51 594.53 55.85 593.16 63.12 600.43 64.49 600.1 66.28"/><polygon class="c" points="524.8 18.94 515.96 11.53 517.42 9.78 524.52 15.74 530.48 8.63 532.22 10.09 524.8 18.94"/><polygon class="c" points="532.2 112.84 531.07 106.35 524.58 107.48 524.3 105.89 532.38 104.49 533.79 112.56 532.2 112.84"/><polygon class="c" points="646.17 22.78 639.09 17.17 640.2 15.77 645.88 20.28 650.38 14.6 651.78 15.7 646.17 22.78"/><polygon class="c" points="569.47 312.73 566.02 306.26 559.55 309.71 558.7 308.12 566.76 303.82 571.05 311.88 569.47 312.73"/><polygon class="c" points="609.55 241.73 600.69 232.94 602.42 231.19 609.53 238.25 616.59 231.13 618.34 232.86 609.55 241.73"/><path class="c" d="M864.91,400.83l-.2-1.54a4.31,4.31,0,0,0,2.9-1.67,4.38,4.38,0,0,0-4-7l-.21-1.53a5.93,5.93,0,0,1,5.47,9.48A5.9,5.9,0,0,1,864.91,400.83Z"/><path class="c" d="M730.22,330.11A4.55,4.55,0,0,1,730,321l.07,1.18a3.37,3.37,0,0,0-3.16,3.56,3.33,3.33,0,0,0,1.13,2.32,3.28,3.28,0,0,0,2.43.84l.07,1.19Z"/><path class="c" d="M650.74,347.59a4.69,4.69,0,0,1-4-2.2l1-.65a3.44,3.44,0,0,0,2.16,1.54,3.47,3.47,0,0,0,3.71-5.23l1-.65a4.69,4.69,0,0,1-4,7.19Z"/><path class="c" d="M941.08,374a6.08,6.08,0,0,1,.95-8.56,6.11,6.11,0,0,1,8.57,1l-1.25,1a4.5,4.5,0,1,0-7,5.62Z"/><path class="c" d="M907.59,328h0a3.63,3.63,0,0,1,1.64,6.86,3.56,3.56,0,0,1-1.63.39,3.63,3.63,0,0,1,0-7.25m0-1.62a5.24,5.24,0,1,0,0,10.48,5.24,5.24,0,0,0,0-10.48Z"/><path class="c" d="M701,429.7h0l.31,0a2.91,2.91,0,0,1-.3,5.8h-.31a2.91,2.91,0,0,1,.3-5.81m0-1.3a4.21,4.21,0,0,0-.44,8.4,3.39,3.39,0,0,0,.45,0,4.21,4.21,0,0,0,.43-8.39,3.25,3.25,0,0,0-.44,0Z"/><path class="c" d="M931.18,407.63a3,3,0,0,1,.85,6,2.79,2.79,0,0,1-.85.13,3.05,3.05,0,1,1,0-6.1m0-1.36a4.42,4.42,0,0,0-4.23,5.64,4.41,4.41,0,1,0,4.23-5.64Z"/><path class="c" d="M778.24,324.78h0a4.41,4.41,0,0,1,1.88.42,4.56,4.56,0,0,1,2.26,6,4.56,4.56,0,1,1-4.14-6.46m0-2a6.6,6.6,0,1,0,2.72.59,6.59,6.59,0,0,0-2.72-.59Z"/><path class="c" d="M794.21,385.39h0a5,5,0,1,1-4.52,2.88,5,5,0,0,1,2.81-2.58,5,5,0,0,1,1.71-.3m0-2.23a7.23,7.23,0,0,0-6.78,9.69,7.23,7.23,0,0,0,6.78,4.74,7.22,7.22,0,0,0,0-14.43Z"/><path class="c" d="M757.32,364.73l4.61,5.1-6.84.63-4.61-5.1,6.84-.63M758,363,747,364l7.45,8.23,11.05-1L758,363Z"/><path class="c" d="M701.69,361.24l5,1.76,1.59,5.05-5-1.76-1.59-5.05m-2-2.1,2.57,8.17,8.07,2.84L707.73,362l-8.07-2.85Z"/><path class="c" d="M678.57,322.36l6.73,7-1.56,9.58-6.73-7,1.56-9.58m-1.59-5.1-2.52,15.47L685.33,344l2.52-15.47L677,317.26Z"/><path class="c" d="M659,389.25a1.09,1.09,0,0,1-.49-.11,1.16,1.16,0,0,1-.56-1.54,5.1,5.1,0,0,1,3.12-2.76,5,5,0,0,1,4.12.51,2.74,2.74,0,0,0,4-1.24,5.06,5.06,0,0,1,7.25-2.25,1.16,1.16,0,1,1-1.18,2,2.75,2.75,0,0,0-4,1.24,5,5,0,0,1-3.11,2.75,5.1,5.1,0,0,1-4.13-.5,2.76,2.76,0,0,0-4,1.23A1.13,1.13,0,0,1,659,389.25Z"/><path class="c" d="M887,439.05h0a.76.76,0,0,1-.72-.79,1.81,1.81,0,0,0-.54-1.39,1.79,1.79,0,0,0-1.4-.5,3.31,3.31,0,0,1-3.54-3.47,1.8,1.8,0,0,0-.53-1.39,1.85,1.85,0,0,0-1.4-.51.77.77,0,0,1-.8-.71.75.75,0,0,1,.71-.8,3.31,3.31,0,0,1,3.54,3.47,1.78,1.78,0,0,0,1.93,1.89,3.39,3.39,0,0,1,2.56.94,3.31,3.31,0,0,1,1,2.53A.76.76,0,0,1,887,439.05Z"/><path class="c" d="M652.41,428.58h-.14a.86.86,0,0,1,.06-1.72,2,2,0,0,0,1.57-.61,2.06,2.06,0,0,0,.57-1.6,3.73,3.73,0,0,1,1-2.9,3.78,3.78,0,0,1,2.86-1.14A2.09,2.09,0,0,0,660,420a2.06,2.06,0,0,0,.57-1.59.86.86,0,1,1,1.72-.11,3.76,3.76,0,0,1-3.92,4,2.07,2.07,0,0,0-1.58.61,2.09,2.09,0,0,0-.56,1.6,3.74,3.74,0,0,1-3.78,4Z"/><path class="c" d="M757,436.66a4,4,0,0,1-3.9-3.14,2.18,2.18,0,0,0-2.88-1.6,4,4,0,0,1-5.27-2.92.92.92,0,1,1,1.8-.42,2.17,2.17,0,0,0,2.88,1.59,4,4,0,0,1,5.26,2.92,2.17,2.17,0,0,0,2.88,1.6.92.92,0,1,1,.59,1.74A4,4,0,0,1,757,436.66Z"/><path class="c" d="M822.46,366.58a4.8,4.8,0,0,1-1.69-.31,1.06,1.06,0,0,1-.63-1.36,1.07,1.07,0,0,1,1.37-.64,2.51,2.51,0,0,0,3.38-1.76,4.66,4.66,0,0,1,6.18-3.22,2.51,2.51,0,0,0,3.39-1.76,1.07,1.07,0,1,1,2.06.55,4.65,4.65,0,0,1-6.18,3.21,2.59,2.59,0,0,0-2.1.11,2.56,2.56,0,0,0-1.28,1.66,4.73,4.73,0,0,1-2.37,3A4.56,4.56,0,0,1,822.46,366.58Z"/><path class="c" d="M719.08,399.4a.8.8,0,0,1-.18-1.57l6.83-1.57a.78.78,0,0,1,.95.59.79.79,0,0,1-.59.95l-6.83,1.58Z"/><path class="c" d="M860.81,339.23a.76.76,0,0,1-.17-1.49l6.46-1.55a.75.75,0,0,1,.91.56.74.74,0,0,1-.56.9L861,339.2A.57.57,0,0,1,860.81,339.23Z"/><polygon class="c" points="902.32 375.82 893.26 374.12 894.97 365.06 896.76 365.4 895.38 372.67 902.65 374.04 902.32 375.82"/><polygon class="c" points="827.03 328.49 818.18 321.07 819.64 319.33 826.75 325.29 832.7 318.18 834.44 319.64 827.03 328.49"/><polygon class="c" points="834.42 422.39 833.29 415.9 826.8 417.04 826.52 415.44 834.6 414.04 836.01 422.11 834.42 422.39"/><polygon class="c" points="948.39 332.33 941.32 326.72 942.42 325.32 948.1 329.83 952.61 324.14 954 325.25 948.39 332.33"/><path class="c" d="M1184.58,403.32l-.2-1.53a4.38,4.38,0,1,0-1.14-8.68l-.2-1.53a5.92,5.92,0,0,1,1.54,11.74Z"/><path class="c" d="M1049.88,332.6a4.49,4.49,0,0,1-3-1.15,4.55,4.55,0,0,1,2.75-7.95l.07,1.19a3.37,3.37,0,0,0,.4,6.72l.07,1.18Z"/><path class="c" d="M970.41,350.08a4.71,4.71,0,0,1-4-2.19l1-.65a3.51,3.51,0,0,0,2.17,1.53,3.41,3.41,0,0,0,2.62-.45,3.47,3.47,0,0,0,1.08-4.78l1-.65a4.69,4.69,0,0,1-4,7.19Z"/><path class="c" d="M1260.75,376.45a6.09,6.09,0,0,1,9.51-7.61l-1.24,1a4.52,4.52,0,0,0-6.33-.7,4.45,4.45,0,0,0-1.66,3,4.5,4.5,0,0,0,1,3.31Z"/><path class="c" d="M1227.26,330.45h0a3.63,3.63,0,0,1,3.45,4.76,3.63,3.63,0,0,1-6.68.5,3.62,3.62,0,0,1,1.6-4.86,3.57,3.57,0,0,1,1.63-.4m0-1.61a5.24,5.24,0,0,0,0,10.48,5.16,5.16,0,0,0,2.36-.57,5.24,5.24,0,0,0-2.37-9.91Z"/><path class="c" d="M1020.62,432.19h0l.31,0a2.89,2.89,0,0,1,2,1.06,2.91,2.91,0,0,1-2.25,4.75l-.31,0a2.91,2.91,0,0,1,.3-5.81m0-1.29a4.21,4.21,0,0,0-.44,8.39l.45,0a4.21,4.21,0,0,0,.43-8.4,3.31,3.31,0,0,0-.44,0Z"/><path class="c" d="M1250.85,410.13a3,3,0,0,1,.84,6,3,3,0,0,1-.85.12,3,3,0,0,1-.84-6,3,3,0,0,1,.85-.12m0-1.36a4.35,4.35,0,0,0-1.23.17,4.43,4.43,0,1,0,1.23-.17Z"/><path class="c" d="M1097.9,327.28h0a4.59,4.59,0,0,1,1.89.41,4.56,4.56,0,0,1,2.26,6,4.58,4.58,0,0,1-4.15,2.67A4.41,4.41,0,0,1,1096,336a4.56,4.56,0,0,1,1.89-8.71m0-2a6.61,6.61,0,1,0,2.73.6,6.48,6.48,0,0,0-2.73-.6Z"/><path class="c" d="M1113.88,387.88h0a5,5,0,0,1,1.7,9.68,5,5,0,0,1-1.7.3,5,5,0,0,1-4.69-3.28,4.92,4.92,0,0,1,.17-3.82,5,5,0,0,1,4.52-2.88m0-2.22a7.34,7.34,0,0,0-2.47.43,7.22,7.22,0,0,0,2.47,14,7.4,7.4,0,0,0,2.47-.44,7.21,7.21,0,0,0-2.47-14Z"/><path class="c" d="M1077,367.23l4.6,5.09-6.84.63-4.61-5.09,6.85-.63m.68-1.76-11.05,1,7.45,8.23,11-1-7.45-8.23Z"/><path class="c" d="M1021.36,363.73l5,1.77,1.59,5.05-5-1.76-1.59-5.06m-2-2.09,2.57,8.16,8.07,2.85-2.57-8.17-8.07-2.84Z"/><path class="c" d="M998.24,324.86l6.72,7-1.56,9.57-6.72-7,1.56-9.57m-1.59-5.11-2.52,15.48,10.87,11.3,2.51-15.48-10.86-11.3Z"/><path class="c" d="M978.67,391.75a1.21,1.21,0,0,1-.49-.11,1.16,1.16,0,0,1-.56-1.55,5.05,5.05,0,0,1,7.24-2.25,2.81,2.81,0,0,0,2.27.29,2.78,2.78,0,0,0,1.7-1.53,5.06,5.06,0,0,1,7.25-2.25,1.17,1.17,0,0,1,.41,1.59,1.15,1.15,0,0,1-1.59.41,2.75,2.75,0,0,0-4,1.24,5.05,5.05,0,0,1-7.24,2.25,2.81,2.81,0,0,0-2.27-.29,2.78,2.78,0,0,0-1.7,1.53A1.17,1.17,0,0,1,978.67,391.75Z"/><path class="c" d="M1206.66,441.54h0a.77.77,0,0,1-.73-.79,1.78,1.78,0,0,0-.53-1.38,1.81,1.81,0,0,0-1.4-.51,3.31,3.31,0,0,1-3.54-3.47,1.78,1.78,0,0,0-1.94-1.89.78.78,0,0,1-.79-.72.75.75,0,0,1,.71-.8,3.31,3.31,0,0,1,3.54,3.47,1.79,1.79,0,0,0,1.93,1.9,3.31,3.31,0,0,1,3.54,3.46A.76.76,0,0,1,1206.66,441.54Z"/><path class="c" d="M972.07,431.08h-.13a.85.85,0,0,1-.83-.88.86.86,0,0,1,.88-.84,2,2,0,0,0,1.58-.61,2.08,2.08,0,0,0,.56-1.6,3.78,3.78,0,0,1,3.92-4,2,2,0,0,0,2.14-2.21A.86.86,0,0,1,981,420a.85.85,0,0,1,.91.8,3.75,3.75,0,0,1-3.91,4,2,2,0,0,0-1.58.62,2.11,2.11,0,0,0-.57,1.6,3.74,3.74,0,0,1-3.78,4Z"/><path class="c" d="M1076.63,439.15a3.89,3.89,0,0,1-1.93-.5,4,4,0,0,1-2-2.64,2.26,2.26,0,0,0-1.08-1.46,2.23,2.23,0,0,0-1.81-.14,4,4,0,0,1-5.26-2.92.92.92,0,1,1,1.79-.42,2.18,2.18,0,0,0,2.88,1.6,4,4,0,0,1,5.27,2.92,2.17,2.17,0,0,0,2.88,1.59.92.92,0,0,1,.59,1.75A4.3,4.3,0,0,1,1076.63,439.15Z"/><path class="c" d="M1142.13,369.08a5,5,0,0,1-1.69-.31,1.07,1.07,0,0,1-.63-1.37,1.06,1.06,0,0,1,1.37-.63,2.57,2.57,0,0,0,2.09-.11,2.54,2.54,0,0,0,1.29-1.66,4.69,4.69,0,0,1,2.37-3,4.64,4.64,0,0,1,3.81-.21,2.57,2.57,0,0,0,2.09-.11,2.54,2.54,0,0,0,1.29-1.66,1.08,1.08,0,0,1,1.31-.75,1.06,1.06,0,0,1,.76,1.3,4.66,4.66,0,0,1-6.18,3.22,2.56,2.56,0,0,0-2.1.11,2.58,2.58,0,0,0-1.29,1.65,4.64,4.64,0,0,1-2.37,3A4.53,4.53,0,0,1,1142.13,369.08Z"/><path class="c" d="M1038.75,401.89a.79.79,0,0,1-.18-1.56l6.83-1.58a.79.79,0,1,1,.35,1.54l-6.82,1.58Z"/><path class="c" d="M1180.48,341.72a.75.75,0,0,1-.17-1.48l6.46-1.56a.75.75,0,1,1,.35,1.46l-6.46,1.56Z"/><polygon class="c" points="1221.99 378.32 1212.93 376.61 1214.64 367.55 1216.43 367.89 1215.05 375.16 1222.32 376.53 1221.99 378.32"/><polygon class="c" points="1146.69 330.98 1137.85 323.57 1139.31 321.83 1146.41 327.78 1152.37 320.68 1154.11 322.14 1146.69 330.98"/><polygon class="c" points="1154.09 424.88 1152.96 418.4 1146.47 419.53 1146.19 417.94 1154.27 416.53 1155.68 424.61 1154.09 424.88"/><polygon class="c" points="1268.06 334.82 1260.98 329.21 1262.09 327.82 1267.77 332.32 1272.28 326.64 1273.67 327.74 1268.06 334.82"/><path class="c" d="M864.91,88.78l-.2-1.53a4.31,4.31,0,0,0,2.9-1.67,4.38,4.38,0,0,0,.87-3.24,4.37,4.37,0,0,0-4.9-3.77L863.37,77a5.92,5.92,0,1,1,1.54,11.74Z"/><path class="c" d="M718.68,251.71a8.83,8.83,0,0,1-2.32-.32,8.42,8.42,0,0,1-5.06-4l1.92-1.08a6.24,6.24,0,1,0,10.9-6.07l1.93-1.08a8.45,8.45,0,0,1-7.37,12.56Z"/><path class="c" d="M914.48,200.29A8.6,8.6,0,0,1,926,187.56l-1.5,1.66a6.36,6.36,0,1,0-8.55,9.41Z"/><path class="c" d="M730.22,18.07a4.55,4.55,0,0,1-4.54-4.29,4.48,4.48,0,0,1,1.14-3.29A4.54,4.54,0,0,1,730,9l.07,1.19a3.31,3.31,0,0,0-2.32,1.13A3.36,3.36,0,0,0,728,16a3.33,3.33,0,0,0,2.43.84l.07,1.19Z"/><path class="c" d="M952.85,171.4l-.94-1.28a4.52,4.52,0,0,0,1-6.31,4.53,4.53,0,0,0-6.31-1l-.94-1.28a6.1,6.1,0,0,1,8.53,1.33,6.08,6.08,0,0,1-1.33,8.53Z"/><path class="c" d="M822,203l-1.3-2a6.81,6.81,0,1,0-7.36-11.45l-1.29-2A9.21,9.21,0,0,1,822,203Z"/><path class="c" d="M650.74,35.54a4.68,4.68,0,0,1-4-2.19l1-.65a3.48,3.48,0,0,0,4.78,1.09A3.48,3.48,0,0,0,653.67,29l1-.66a4.69,4.69,0,0,1-1.47,6.47A4.63,4.63,0,0,1,650.74,35.54Z"/><path class="c" d="M941.08,61.91a6.09,6.09,0,0,1,.95-8.56,6.11,6.11,0,0,1,8.57,1l-1.25,1a4.5,4.5,0,1,0-7,5.62Z"/><path class="c" d="M774.81,199.54A9.61,9.61,0,1,1,787,184.71l-1.59,1.93a7.11,7.11,0,0,0-9.05,11Z"/><path class="c" d="M907.59,15.92h0A3.62,3.62,0,0,1,911,20.67a3.67,3.67,0,0,1-3.44,2.5,3.63,3.63,0,0,1,0-7.25m0-1.62a5.16,5.16,0,0,0-2.36.57,5.24,5.24,0,0,0,2.37,9.91,5.1,5.1,0,0,0,2.36-.57,5.24,5.24,0,0,0-2.37-9.91Z"/><path class="c" d="M701,117.66h.31a2.93,2.93,0,0,1,2,1.07,2.88,2.88,0,0,1,.63,2.13,2.91,2.91,0,0,1-2.89,2.61h-.31a2.91,2.91,0,0,1,.3-5.81m0-1.3a4.21,4.21,0,0,0-.44,8.4l.45,0a4.21,4.21,0,0,0,.43-8.4l-.44,0Z"/><path class="c" d="M931.18,95.59a3,3,0,0,1,.85,6,3.12,3.12,0,0,1-.85.12,3,3,0,1,1,0-6.09m0-1.36A4.42,4.42,0,0,0,927,99.86a4.4,4.4,0,1,0,4.23-5.63Z"/><path class="c" d="M778.24,12.74h0a4.56,4.56,0,0,1,4.26,3,4.5,4.5,0,0,1-.12,3.49,4.56,4.56,0,1,1-4.14-6.45m0-2a6.6,6.6,0,1,0,2.72.59,6.58,6.58,0,0,0-2.72-.59Z"/><path class="c" d="M865.79,150.76h0a2.84,2.84,0,0,1,.58.05,3.35,3.35,0,0,1-.57,6.65,3.9,3.9,0,0,1-.58-.05,3.35,3.35,0,0,1,.57-6.65m0-1.5a4.85,4.85,0,0,0-.82,9.62,4.73,4.73,0,0,0,.83.07,4.85,4.85,0,0,0,.82-9.62,5.93,5.93,0,0,0-.83-.07Z"/><path class="c" d="M698.06,157.9h0a3.94,3.94,0,0,1,3.92,3.48,3.94,3.94,0,0,1-3.92,4.42,4,4,0,0,1,0-7.9m0-1.76a5.71,5.71,0,0,0-3.52,10.21,5.65,5.65,0,0,0,3.52,1.21,5.7,5.7,0,0,0,3.52-10.2,5.66,5.66,0,0,0-3.52-1.22Z"/><path class="c" d="M661,291.79h0a2.75,2.75,0,0,1,2.73,3.13,2.71,2.71,0,0,1-1.06,1.82,2.75,2.75,0,0,1-4.39-2.57,2.75,2.75,0,0,1,2.72-2.38m0-1.23a4,4,0,1,0,3.18,1.57,4,4,0,0,0-3.18-1.57Z"/><path class="c" d="M794.21,73.35h0a5,5,0,1,1-1.71.3,5,5,0,0,1,1.71-.3m0-2.23A7.21,7.21,0,1,0,801,75.86a7.23,7.23,0,0,0-6.78-4.74Z"/><path class="c" d="M795.77,281.94h0a2.85,2.85,0,0,1,2.55,4.1,2.82,2.82,0,0,1-2.55,1.59,2.91,2.91,0,0,1-1.26-.29,2.85,2.85,0,0,1-1.29-3.81,2.82,2.82,0,0,1,2.55-1.59m0-1.26a4.11,4.11,0,1,0,1.82.42,4.12,4.12,0,0,0-1.82-.42Z"/><path class="c" d="M757.32,52.69l4.61,5.1-6.84.63-4.61-5.1,6.84-.63m.69-1.76-11.06,1,7.45,8.24,11.05-1L758,50.93Z"/><path class="c" d="M655.18,216.39l4.72,5-1.16,6.77-4.72-5,1.16-6.77m-1.09-3.63-1.88,11,7.62,8.07,1.89-10.95-7.63-8.07Z"/><path class="c" d="M907.36,286.75l9.15,4.53,1.87,10-9.15-4.53-1.87-10M904,282.27l3,16.22,14.78,7.31-3-16.21L904,282.27Z"/><path class="c" d="M701.69,49.2l5,1.76,1.59,5-5-1.76-1.59-5m-2-2.1,2.57,8.17,8.07,2.84L707.73,50l-8.07-2.85Z"/><path class="c" d="M798.1,221.39l.72,6.05-4.41,4.2-.72-6,4.41-4.2m1.13-3.15L792.12,225l1.16,9.76,7.11-6.79-1.16-9.76Z"/><path class="c" d="M735.28,158.42l4.83,2.67.75,5.46L736,163.88l-.76-5.46m-1.71-2.51,1.22,8.83,7.79,4.32-1.22-8.83-7.79-4.32Z"/><path class="c" d="M755.33,297.82l-2.26,4.62-5.05,1,2.26-4.62,5.05-1m2.25-1.72-8.16,1.57-3.65,7.46,8.16-1.56,3.65-7.47Z"/><path class="c" d="M809.45,126.49,803.76,135l-10.26.58,5.69-8.55,10.26-.58m4.91-2.81-16.57.93-9.21,13.82,16.58-.93,9.2-13.82Z"/><path class="c" d="M678.57,10.32l6.73,7-1.56,9.58-6.73-7,1.56-9.58M677,5.22l-2.52,15.47L685.33,32l2.52-15.47L677,5.22Z"/><path class="c" d="M659,77.21a1.24,1.24,0,0,1-.49-.11,1.16,1.16,0,0,1-.56-1.54,5.07,5.07,0,0,1,7.24-2.26,2.81,2.81,0,0,0,2.27.29,2.77,2.77,0,0,0,1.7-1.52,5.06,5.06,0,0,1,7.25-2.25,1.16,1.16,0,1,1-1.18,2,2.75,2.75,0,0,0-2.26-.29,2.81,2.81,0,0,0-1.71,1.52A5.06,5.06,0,0,1,664,75.31a2.74,2.74,0,0,0-4,1.23A1.15,1.15,0,0,1,659,77.21Z"/><path class="c" d="M887,127h0a.74.74,0,0,1-.72-.78,1.81,1.81,0,0,0-1.94-1.9,3.3,3.3,0,0,1-3.54-3.46,1.79,1.79,0,0,0-.53-1.39,1.81,1.81,0,0,0-1.4-.51.77.77,0,0,1-.8-.71.75.75,0,0,1,.71-.8,3.3,3.3,0,0,1,3.54,3.46,1.82,1.82,0,0,0,.53,1.39,1.86,1.86,0,0,0,1.4.51,3.39,3.39,0,0,1,2.56.94,3.31,3.31,0,0,1,1,2.53A.77.77,0,0,1,887,127Z"/><path class="c" d="M870.64,272.15a.69.69,0,0,1,0-1.38,1.62,1.62,0,0,0,1.23-.54,1.67,1.67,0,0,0,.4-1.3,3,3,0,0,1,3-3.36,1.66,1.66,0,0,0,1.24-.54,1.63,1.63,0,0,0,.39-1.3.69.69,0,0,1,1.37-.14,3,3,0,0,1-3,3.36,1.62,1.62,0,0,0-1.23.54,1.67,1.67,0,0,0-.4,1.3,3,3,0,0,1-3,3.36Z"/><path class="c" d="M693.56,213.47a1.08,1.08,0,0,1-.67-.24,4.71,4.71,0,0,1-.42-7,2.57,2.57,0,0,0-.23-3.86,4.71,4.71,0,0,1-.42-7,1.08,1.08,0,1,1,1.55,1.51,2.55,2.55,0,0,0,.23,3.86,4.73,4.73,0,0,1,.42,7.05,2.61,2.61,0,0,0-.78,2,2.64,2.64,0,0,0,1,1.88,1.08,1.08,0,0,1-.68,1.92Z"/><path class="c" d="M705.28,290a5.52,5.52,0,0,1-3.51-1.23,5.61,5.61,0,0,1-2-4.08,3,3,0,0,0-3.54-2.86,5.6,5.6,0,0,1-4.41-1.17,5.53,5.53,0,0,1-2-4.07,1.27,1.27,0,1,1,2.54-.14,3,3,0,0,0,3.53,2.86,5.56,5.56,0,0,1,6.46,5.24,3,3,0,0,0,3.53,2.87,1.27,1.27,0,0,1,.39,2.51A5.67,5.67,0,0,1,705.28,290Z"/><path class="c" d="M652.41,116.54h-.14a.87.87,0,0,1-.83-.89.85.85,0,0,1,.89-.83,2,2,0,0,0,2.14-2.21,3.76,3.76,0,0,1,1-2.91,3.82,3.82,0,0,1,2.86-1.14A2,2,0,0,0,660,108a2.07,2.07,0,0,0,.57-1.6.86.86,0,1,1,1.72-.1,3.76,3.76,0,0,1-3.92,4,2,2,0,0,0-1.58.61,2.09,2.09,0,0,0-.56,1.6,3.79,3.79,0,0,1-1.05,2.9A3.75,3.75,0,0,1,652.41,116.54Z"/><path class="c" d="M757,124.62a4,4,0,0,1-1.93-.5,4.05,4.05,0,0,1-2-2.65,2.18,2.18,0,0,0-2.88-1.59,4,4,0,0,1-5.27-2.92.93.93,0,0,1,1.8-.43,2.17,2.17,0,0,0,2.88,1.6,4,4,0,0,1,5.26,2.92,2.17,2.17,0,0,0,2.88,1.6.92.92,0,1,1,.59,1.74A4.27,4.27,0,0,1,757,124.62Z"/><path class="c" d="M660.57,165.54a1.12,1.12,0,0,1-.79-.33,4.84,4.84,0,0,1,.41-7.25,2.62,2.62,0,0,0,1-1.93,2.66,2.66,0,0,0-.79-2,4.82,4.82,0,0,1,.42-7.24,1.11,1.11,0,1,1,1.39,1.72,2.62,2.62,0,0,0-.22,4,4.84,4.84,0,0,1-.42,7.24,2.61,2.61,0,0,0-.22,4,1.11,1.11,0,0,1,0,1.57A1.09,1.09,0,0,1,660.57,165.54Z"/><path class="c" d="M822.46,54.54a4.8,4.8,0,0,1-1.69-.31,1.07,1.07,0,0,1,.74-2,2.51,2.51,0,0,0,3.38-1.76,4.66,4.66,0,0,1,6.18-3.22,2.59,2.59,0,0,0,2.1-.1,2.63,2.63,0,0,0,1.29-1.66,1.06,1.06,0,1,1,2.06.54,4.64,4.64,0,0,1-6.18,3.22,2.59,2.59,0,0,0-2.1.11A2.56,2.56,0,0,0,827,51a4.64,4.64,0,0,1-4.5,3.53Z"/><path class="c" d="M881.05,179.9a.63.63,0,0,1-.43-.17L876.51,176a.63.63,0,0,1,.85-.93l4.11,3.77a.62.62,0,0,1,0,.89A.6.6,0,0,1,881.05,179.9Z"/><path class="c" d="M746.46,210a.66.66,0,0,1-.5-.22l-3.89-4.41a.66.66,0,1,1,1-.88l3.9,4.41a.65.65,0,0,1-.06.93A.63.63,0,0,1,746.46,210Z"/><path class="c" d="M719.08,87.35a.79.79,0,0,1-.18-1.56l6.83-1.58a.8.8,0,0,1,.36,1.55l-6.83,1.57A.55.55,0,0,1,719.08,87.35Z"/><path class="c" d="M860.81,27.18a.75.75,0,0,1-.17-1.48l6.46-1.55a.75.75,0,1,1,.35,1.46L861,27.16A.55.55,0,0,1,860.81,27.18Z"/><path class="c" d="M946.72,279.24a.69.69,0,0,1-.67-.53l-1.41-5.93a.69.69,0,1,1,1.34-.32l1.41,5.93a.69.69,0,0,1-.51.83Z"/><path class="c" d="M835.34,286a.67.67,0,0,1-.61-.39l-2.4-5.4a.67.67,0,0,1,.34-.88.66.66,0,0,1,.88.34L836,285a.67.67,0,0,1-.61.94Z"/><path class="c" d="M832.71,243.83a1.12,1.12,0,0,1-.06-2.23l9.85-.58a1.12,1.12,0,0,1,1.18,1,1.13,1.13,0,0,1-1,1.18l-9.85.58Z"/><path class="c" d="M768.19,257.26a.6.6,0,0,1-.57-.42l-1.48-5a.59.59,0,0,1,1.14-.33l1.48,5a.6.6,0,0,1-.4.74A.5.5,0,0,1,768.19,257.26Z"/><path class="c" d="M952.55,221.71h-.12l-8.59-1a1,1,0,1,1,.24-1.94l8.58,1a1,1,0,0,1-.11,1.94Z"/><polygon class="c" points="910.1 154.76 908.3 152.97 917.39 143.84 926.52 152.92 924.73 154.72 917.4 147.43 910.1 154.76"/><polygon class="c" points="870.78 226.15 869.15 225.22 872.95 218.57 866.3 214.77 867.24 213.13 875.51 217.87 870.78 226.15"/><polygon class="c" points="817.86 314.76 812.93 307.87 814.29 306.9 818.25 312.44 823.79 308.47 824.76 309.83 817.86 314.76"/><polygon class="c" points="902.32 63.78 893.26 62.07 894.97 53.02 896.76 53.35 895.38 60.62 902.65 62 902.32 63.78"/><polygon class="c" points="827.03 16.45 818.18 9.03 819.64 7.29 826.75 13.24 832.7 6.14 834.44 7.6 827.03 16.45"/><polygon class="c" points="834.42 110.35 833.29 103.86 826.8 104.99 826.52 103.4 834.6 101.99 836.01 110.07 834.42 110.35"/><polygon class="c" points="948.39 20.28 941.32 14.67 942.42 13.28 948.1 17.79 952.61 12.1 954 13.21 948.39 20.28"/><polygon class="c" points="871.69 310.23 868.24 303.76 861.77 307.21 860.92 305.63 868.98 301.33 873.28 309.39 871.69 310.23"/><polygon class="c" points="911.77 239.23 902.91 230.45 904.64 228.7 911.76 235.76 918.81 228.64 920.56 230.37 911.77 239.23"/><path class="c" d="M1184.58,91.28l-.2-1.54a4.37,4.37,0,0,0,3.77-4.9,4.37,4.37,0,0,0-4.91-3.78l-.2-1.53a5.92,5.92,0,0,1,6.64,5.11,5.94,5.94,0,0,1-5.1,6.64Z"/><path class="c" d="M1038.35,254.21a8.48,8.48,0,0,1-7.38-4.34l1.92-1.07a6.24,6.24,0,1,0,10.9-6.08l1.92-1.07a8.46,8.46,0,0,1-7.36,12.56Z"/><path class="c" d="M1234.15,202.79a8.6,8.6,0,1,1,11.56-12.74l-1.51,1.66a6.36,6.36,0,1,0-8.54,9.42Z"/><path class="c" d="M1049.88,20.56a4.49,4.49,0,0,1-3-1.15,4.55,4.55,0,0,1-.39-6.43,4.52,4.52,0,0,1,3.14-1.52l.07,1.18a3.39,3.39,0,0,0-2.32,1.13,3.34,3.34,0,0,0-.84,2.43,3.37,3.37,0,0,0,3.56,3.16l.07,1.19Z"/><path class="c" d="M1272.52,173.9l-.94-1.29a4.51,4.51,0,0,0-5.32-7.29l-.94-1.29a6.1,6.1,0,0,1,9.63,5.88A6,6,0,0,1,1272.52,173.9Z"/><path class="c" d="M1141.67,205.53l-1.3-2a6.8,6.8,0,0,0-7.36-11.44l-1.3-2a9.2,9.2,0,0,1,10,15.48Z"/><path class="c" d="M970.41,38a4.69,4.69,0,0,1-4-2.2l1-.65a3.47,3.47,0,1,0,5.87-3.69l1-.65a4.69,4.69,0,0,1-1.47,6.47A4.75,4.75,0,0,1,970.41,38Z"/><path class="c" d="M1260.75,64.41a6.09,6.09,0,0,1,9.51-7.61l-1.24,1a4.51,4.51,0,0,0-6.33-.7,4.49,4.49,0,0,0-.7,6.32Z"/><path class="c" d="M1094.47,202a9.62,9.62,0,0,1-1.29-13.53,9.62,9.62,0,0,1,13.53-1.3l-1.6,1.94a7.09,7.09,0,0,0-10,1,7.13,7.13,0,0,0,1,10Z"/><path class="c" d="M1227.26,18.41h0a3.63,3.63,0,0,1,1.64,6.86,3.56,3.56,0,0,1-1.63.39,3.62,3.62,0,0,1-1.64-6.86,3.56,3.56,0,0,1,1.63-.39m0-1.61a5.24,5.24,0,1,0,4.68,2.87,5.28,5.28,0,0,0-4.68-2.87Z"/><path class="c" d="M1020.62,120.15h0l.31,0a2.89,2.89,0,0,1,2,1.06,2.9,2.9,0,0,1-2.25,4.74h-.31a2.91,2.91,0,0,1,.3-5.81m0-1.3a4.21,4.21,0,0,0-.44,8.4,3.39,3.39,0,0,0,.45,0,4.21,4.21,0,0,0,.43-8.39l-.44,0Z"/><path class="c" d="M1250.85,98.08a3,3,0,0,1,.84,6,2.7,2.7,0,0,1-.85.13,3.05,3.05,0,0,1-.84-6,3,3,0,0,1,.85-.12m0-1.36a4.41,4.41,0,1,0,1.22,8.64,4.41,4.41,0,0,0-1.22-8.64Z"/><path class="c" d="M1097.9,15.24h0a4.44,4.44,0,0,1,1.89.41,4.56,4.56,0,0,1,2.26,6,4.56,4.56,0,1,1-4.15-6.45m0-2a6.59,6.59,0,0,0-2.73,12.6,6.44,6.44,0,0,0,2.73.6,6.6,6.6,0,1,0,0-13.2Z"/><path class="c" d="M1185.46,153.25h0a3.66,3.66,0,0,1,.57.05,3.35,3.35,0,0,1-.56,6.65,3.79,3.79,0,0,1-.58,0,3.35,3.35,0,0,1,.57-6.65m0-1.49a4.84,4.84,0,0,0-.82,9.61,4.67,4.67,0,0,0,.83.08,4.85,4.85,0,0,0,.82-9.62,4.73,4.73,0,0,0-.83-.07Z"/><path class="c" d="M1017.73,160.4h0a3.95,3.95,0,0,1,3.11,6.38,4,4,0,0,1-3.12,1.52,3.91,3.91,0,0,1-2.43-.85,3.95,3.95,0,0,1,2.44-7m0-1.77a5.72,5.72,0,0,0,0,11.43,5.72,5.72,0,0,0,0-11.43Z"/><path class="c" d="M980.67,294.28h0a2.75,2.75,0,0,1,2.73,3.13,2.75,2.75,0,1,1-5.45-.74,2.67,2.67,0,0,1,1.06-1.82,2.71,2.71,0,0,1,1.66-.57m0-1.22a4,4,0,0,0-3.17,6.39,4,4,0,1,0,3.17-6.39Z"/><path class="c" d="M1113.88,75.84h0a5,5,0,0,1,1.7,9.67,4.74,4.74,0,0,1-1.7.31,5,5,0,0,1-4.69-3.28,4.92,4.92,0,0,1,.17-3.82,5,5,0,0,1,4.52-2.88m0-2.23a7.36,7.36,0,0,0-2.47.44,7.19,7.19,0,1,0,2.47-.44Z"/><path class="c" d="M1115.44,284.44h0a2.84,2.84,0,0,1,2.69,1.93,2.87,2.87,0,0,1-.14,2.17,2.83,2.83,0,0,1-2.56,1.59,2.77,2.77,0,0,1-1.25-.3,2.84,2.84,0,0,1,1.26-5.39m0-1.27a4.12,4.12,0,1,0,1.82.43,4.1,4.1,0,0,0-1.82-.43Z"/><path class="c" d="M1077,55.19l4.6,5.09-6.84.63-4.61-5.1,6.85-.62m.68-1.77-11.05,1,7.45,8.23,11-1-7.45-8.24Z"/><path class="c" d="M974.85,218.88l4.72,5-1.16,6.78-4.72-5,1.16-6.77m-1.09-3.62-1.88,10.94,7.62,8.07,1.88-10.94-7.62-8.07Z"/><path class="c" d="M1227,289.25l9.15,4.53,1.86,10-9.14-4.53-1.87-10m-3.39-4.49,3,16.22,14.79,7.32-3-16.22-14.78-7.32Z"/><path class="c" d="M1021.36,51.69l5,1.76,1.59,5-5-1.76-1.59-5.05m-2-2.1,2.57,8.17L1030,60.6l-2.57-8.16-8.07-2.85Z"/><path class="c" d="M1117.77,223.89l.71,6-4.4,4.2-.72-6,4.41-4.2m1.13-3.16-7.11,6.79,1.16,9.76,7.11-6.78-1.16-9.77Z"/><path class="c" d="M1055,160.91l4.82,2.67.76,5.46-4.82-2.67-.76-5.46m-1.72-2.5,1.23,8.82,7.79,4.32-1.22-8.83-7.8-4.31Z"/><path class="c" d="M1075,300.32l-2.26,4.62-5,1,2.26-4.62,5-1m2.25-1.72-8.16,1.56-3.65,7.46,8.16-1.56,3.65-7.46Z"/><path class="c" d="M1129.12,129l-5.7,8.56-10.26.57,5.7-8.55,10.26-.58m4.91-2.81-16.58.93-9.2,13.82,16.58-.93,9.2-13.82Z"/><path class="c" d="M998.24,12.81l6.72,7-1.56,9.57-6.72-7,1.56-9.58m-1.59-5.1-2.52,15.47L1005,34.48,1007.51,19,996.65,7.71Z"/><path class="c" d="M978.67,79.7a1.06,1.06,0,0,1-.49-.11,1.15,1.15,0,0,1-.56-1.54,5.05,5.05,0,0,1,7.24-2.25,2.81,2.81,0,0,0,2.27.29,2.84,2.84,0,0,0,1.7-1.53,5.06,5.06,0,0,1,7.25-2.25,1.16,1.16,0,1,1-1.18,2,2.75,2.75,0,0,0-4,1.24,5.07,5.07,0,0,1-7.24,2.25,2.75,2.75,0,0,0-4,1.23A1.15,1.15,0,0,1,978.67,79.7Z"/><path class="c" d="M1206.66,129.5h0a.77.77,0,0,1-.73-.79,1.78,1.78,0,0,0-1.93-1.89,3.31,3.31,0,0,1-3.54-3.47,1.84,1.84,0,0,0-.53-1.39,1.87,1.87,0,0,0-1.41-.51.76.76,0,0,1-.79-.71.75.75,0,0,1,.71-.8,3.31,3.31,0,0,1,3.54,3.47,1.78,1.78,0,0,0,1.93,1.89,3.35,3.35,0,0,1,2.55.94,3.29,3.29,0,0,1,1,2.53A.76.76,0,0,1,1206.66,129.5Z"/><path class="c" d="M1190.3,274.64a.69.69,0,0,1,0-1.37,1.65,1.65,0,0,0,1.23-.55,1.62,1.62,0,0,0,.39-1.29,3,3,0,0,1,3-3.37,1.63,1.63,0,0,0,1.24-.54,1.69,1.69,0,0,0,.39-1.29.69.69,0,0,1,.61-.76.68.68,0,0,1,.76.61,3,3,0,0,1-.74,2.35,3,3,0,0,1-2.24,1,1.62,1.62,0,0,0-1.63,1.84,3,3,0,0,1-3,3.36Z"/><path class="c" d="M1013.23,216a1.09,1.09,0,0,1-.68-.24,4.71,4.71,0,0,1-.41-7.06,2.57,2.57,0,0,0-.23-3.86,4.71,4.71,0,0,1-.42-7.05,1.08,1.08,0,1,1,1.54,1.51,2.65,2.65,0,0,0-.77,2,2.62,2.62,0,0,0,1,1.88,4.71,4.71,0,0,1,.42,7.05,2.62,2.62,0,0,0-.77,2,2.58,2.58,0,0,0,1,1.88,1.07,1.07,0,0,1,.16,1.52A1.06,1.06,0,0,1,1013.23,216Z"/><path class="c" d="M1025,292.52a5.52,5.52,0,0,1-5.55-5.3,3,3,0,0,0-3.54-2.87,5.53,5.53,0,0,1-6.45-5.23,1.27,1.27,0,0,1,1.19-1.35A1.28,1.28,0,0,1,1012,279a3,3,0,0,0,3.53,2.87,5.55,5.55,0,0,1,6.46,5.23,3,3,0,0,0,1.1,2.24,3.07,3.07,0,0,0,2.43.63,1.27,1.27,0,1,1,.38,2.52A6.8,6.8,0,0,1,1025,292.52Z"/><path class="c" d="M972.07,119h-.13a.86.86,0,0,1,0-1.72,2,2,0,0,0,1.58-.61,2.09,2.09,0,0,0,.56-1.6,3.78,3.78,0,0,1,3.92-4,2.13,2.13,0,0,0,1.58-.61,2.09,2.09,0,0,0,.56-1.6.87.87,0,0,1,.81-.92.86.86,0,0,1,.91.81,3.74,3.74,0,0,1-1,2.9,3.78,3.78,0,0,1-2.86,1.14,2.06,2.06,0,0,0-1.58.61,2.14,2.14,0,0,0-.57,1.6,3.73,3.73,0,0,1-3.78,4Z"/><path class="c" d="M1076.63,127.11a4,4,0,0,1-3.9-3.14,2.26,2.26,0,0,0-1.08-1.46,2.23,2.23,0,0,0-1.81-.14,4,4,0,0,1-5.26-2.92.92.92,0,1,1,1.79-.42,2.18,2.18,0,0,0,2.88,1.59,4,4,0,0,1,5.27,2.92,2.17,2.17,0,0,0,2.88,1.6.92.92,0,0,1,.59,1.75A4.3,4.3,0,0,1,1076.63,127.11Z"/><path class="c" d="M980.24,168a1.09,1.09,0,0,1-.79-.33,4.83,4.83,0,0,1,.41-7.24,2.66,2.66,0,0,0,1-1.93,2.71,2.71,0,0,0-.79-2,4.83,4.83,0,0,1,.41-7.24,1.11,1.11,0,0,1,1.4,1.73,2.62,2.62,0,0,0-1,1.92,2.71,2.71,0,0,0,.79,2,4.83,4.83,0,0,1-.41,7.24,2.63,2.63,0,0,0-.23,4,1.11,1.11,0,0,1,0,1.57A1.12,1.12,0,0,1,980.24,168Z"/><path class="c" d="M1142.13,57a5,5,0,0,1-1.69-.3,1.07,1.07,0,0,1-.63-1.37,1.05,1.05,0,0,1,1.37-.63,2.57,2.57,0,0,0,2.09-.11,2.54,2.54,0,0,0,1.29-1.66,4.66,4.66,0,0,1,6.18-3.22,2.51,2.51,0,0,0,3.38-1.76,1.07,1.07,0,1,1,2.07.55,4.7,4.7,0,0,1-2.37,3,4.64,4.64,0,0,1-3.81.21,2.53,2.53,0,0,0-3.39,1.77,4.67,4.67,0,0,1-2.37,3A4.52,4.52,0,0,1,1142.13,57Z"/><path class="c" d="M1200.71,182.39a.61.61,0,0,1-.42-.16l-4.12-3.78a.63.63,0,0,1,0-.89.64.64,0,0,1,.89,0l4.11,3.78a.63.63,0,0,1,0,.89A.67.67,0,0,1,1200.71,182.39Z"/><path class="c" d="M1066.13,212.48a.66.66,0,0,1-.5-.23l-3.9-4.41a.67.67,0,1,1,1-.88l3.9,4.41a.67.67,0,0,1-.06.94A.7.7,0,0,1,1066.13,212.48Z"/><path class="c" d="M1038.75,89.85a.79.79,0,0,1-.77-.62.8.8,0,0,1,.59-1l6.83-1.57a.78.78,0,0,1,.95.59.79.79,0,0,1-.6,1l-6.82,1.58Z"/><path class="c" d="M1180.48,29.68a.75.75,0,0,1-.73-.58.75.75,0,0,1,.56-.91l6.46-1.55a.75.75,0,1,1,.35,1.46l-6.46,1.56Z"/><path class="c" d="M1266.39,281.73a.69.69,0,0,1-.67-.52l-1.42-5.93a.69.69,0,1,1,1.34-.33l1.42,5.94a.69.69,0,0,1-.51.83Z"/><path class="c" d="M1155,288.44a.65.65,0,0,1-.61-.39l-2.4-5.39a.67.67,0,1,1,1.22-.55l2.4,5.4a.67.67,0,0,1-.34.88A.65.65,0,0,1,1155,288.44Z"/><path class="c" d="M1152.38,246.32a1.12,1.12,0,0,1-.06-2.23l9.85-.58a1.13,1.13,0,0,1,1.18,1.05,1.12,1.12,0,0,1-1,1.18l-9.85.58Z"/><path class="c" d="M1087.86,259.76a.6.6,0,0,1-.57-.43l-1.48-5a.6.6,0,0,1,.4-.74.61.61,0,0,1,.74.4l1.48,5a.59.59,0,0,1-.4.73A.51.51,0,0,1,1087.86,259.76Z"/><path class="c" d="M1272.22,224.21h-.12l-8.59-1a1,1,0,0,1,.23-1.94l8.59,1a1,1,0,0,1-.11,2Z"/><polygon class="c" points="1229.77 157.26 1227.97 155.47 1237.06 146.33 1246.19 155.42 1244.4 157.22 1237.07 149.92 1229.77 157.26"/><polygon class="c" points="1190.45 228.64 1188.82 227.71 1192.62 221.06 1185.97 217.26 1186.9 215.63 1195.18 220.37 1190.45 228.64"/><polygon class="c" points="1137.53 317.26 1132.6 310.36 1133.96 309.39 1137.92 314.93 1143.45 310.97 1144.42 312.32 1137.53 317.26"/><polygon class="c" points="1221.99 66.28 1212.93 64.56 1214.64 55.51 1216.43 55.85 1215.05 63.12 1222.32 64.49 1221.99 66.28"/><polygon class="c" points="1146.69 18.94 1137.85 11.53 1139.31 9.78 1146.41 15.74 1152.37 8.63 1154.11 10.09 1146.69 18.94"/><polygon class="c" points="1154.09 112.84 1152.96 106.35 1146.47 107.48 1146.19 105.89 1154.27 104.49 1155.68 112.56 1154.09 112.84"/><polygon class="c" points="1268.06 22.78 1260.98 17.17 1262.09 15.77 1267.77 20.28 1272.28 14.6 1273.67 15.7 1268.06 22.78"/><polygon class="c" points="1191.36 312.73 1187.91 306.26 1181.44 309.71 1180.59 308.12 1188.65 303.82 1192.94 311.88 1191.36 312.73"/><polygon class="c" points="1231.44 241.73 1222.58 232.94 1224.31 231.19 1231.43 238.25 1238.48 231.13 1240.23 232.86 1231.44 241.73"/></g><polygon class="d" points="762.65 38.53 781.32 38.53 769.85 60.02 750.98 60.02 750.98 59.61 751.4 59.61 762.65 38.53"/><polygon class="d" points="789.88 38.11 802.25 38.11 790.75 59.61 778.42 59.61 789.88 38.11"/><path class="e" d="M845.07,118.36l-348.9-1.08a3.87,3.87,0,0,0-3.88,3.88l-.66,215.45a3.87,3.87,0,0,0,3.88,3.88l348.9,1.08a3.87,3.87,0,0,0,3.88-3.88L849,122.24A3.9,3.9,0,0,0,845.07,118.36Zm-3.6,212a4.66,4.66,0,0,1-4.68,4.65L503.09,334a4.66,4.66,0,0,1-4.65-4.69l.63-200.87a4.65,4.65,0,0,1,4.68-4.65l333.7,1a4.65,4.65,0,0,1,4.65,4.68Z"/><rect class="f" x="740.11" y="402.8" width="4.16" height="5" transform="translate(334.57 1146.22) rotate(-89.82)"/><rect class="f" x="720.16" y="402.71" width="4.16" height="5" transform="translate(314.78 1126.19) rotate(-89.82)"/><rect class="f" x="710.16" y="402.69" width="4.16" height="5" transform="translate(304.83 1116.15) rotate(-89.82)"/><rect class="f" x="680.21" y="402.6" width="4.16" height="5" transform="translate(275.06 1086.12) rotate(-89.82)"/><rect class="f" x="700.18" y="402.66" width="4.16" height="5" transform="translate(294.92 1106.16) rotate(-89.82)"/><rect class="f" x="750.11" y="402.83" width="4.16" height="5" transform="translate(344.52 1156.25) rotate(-89.82)"/><rect class="f" x="690.21" y="402.63" width="4.16" height="5" transform="translate(285.01 1096.16) rotate(-89.82)"/><rect class="f" x="730.13" y="402.74" width="4.16" height="5" transform="translate(324.7 1136.19) rotate(-89.82)"/><rect class="f" x="760.08" y="402.86" width="4.16" height="5" transform="translate(354.44 1166.26) rotate(-89.82)"/><rect class="f" x="800.04" y="402.97" width="4.16" height="5" transform="translate(394.16 1206.32) rotate(-89.82)"/><rect class="f" x="770.06" y="402.88" width="4.16" height="5" transform="translate(364.35 1176.25) rotate(-89.82)"/><rect class="f" x="790.03" y="402.94" width="4.16" height="5" transform="translate(384.21 1196.29) rotate(-89.82)"/><rect class="f" x="780.06" y="402.91" width="4.16" height="5" transform="translate(374.3 1186.29) rotate(-89.82)"/><rect class="f" x="594.62" y="402.35" width="4.16" height="5" transform="translate(190 1000.29) rotate(-89.82)"/><rect class="f" x="614.57" y="402.41" width="4.16" height="5" transform="translate(209.82 1020.29) rotate(-89.82)"/><rect class="f" x="604.6" y="402.38" width="4.16" height="5" transform="translate(199.91 1010.29) rotate(-89.82)"/><path class="g" d="M718.75,62.51l-41.7-.14a12.28,12.28,0,0,1-12.2-12.27h0a12.28,12.28,0,0,1,12.27-12.2l41.7.14A12.26,12.26,0,0,1,731,50.31h0A12.19,12.19,0,0,1,718.75,62.51Z"/><circle class="g" cx="691.14" cy="37.24" r="15.27"/><circle class="g" cx="708.2" cy="43.07" r="13.32"/><rect class="h" x="458.89" y="127.19" width="140.3" height="95.6" transform="translate(352.41 703.48) rotate(-89.82)"/><rect class="i" x="454.73" y="124.11" width="140.3" height="95.6" transform="translate(351.34 696.26) rotate(-89.82)"/><rect class="j" x="450.92" y="120.72" width="140.3" height="95.6" transform="translate(350.93 689.07) rotate(-89.82)"/><rect class="f" x="456.13" y="269.48" width="116.53" height="95.6" transform="translate(195.52 830.69) rotate(-89.82)"/><rect class="k" x="654.47" y="22.87" width="45.51" height="176.03" transform="translate(564.24 787.76) rotate(-89.82)"/><rect class="l" x="589.88" y="141.05" width="173.93" height="173.93" transform="matrix(0, -1, 1, 0, 446.73, 904.14)"/><rect class="m" x="677.77" y="187.83" width="276.97" height="78.4" transform="translate(586.68 1042.58) rotate(-89.82)"/><circle cx="476.14" cy="95.85" r="18.32"/><circle class="n" cx="473.52" cy="93.16" r="18.32"/><rect class="c" x="462.89" y="90.54" width="21.25" height="5.31" transform="translate(378.85 566.42) rotate(-89.82)"/><rect class="c" x="470.83" y="82.56" width="5.31" height="21.25" transform="translate(378.83 566.38) rotate(-89.82)"/><circle class="d" cx="656.08" cy="384.6" r="47.15"/><path class="o" d="M643.29,400.05l-25.06-11.22v-4.26l25.13-12.48,0,7.37-15.41,7,15.38,6.29Z"/><path class="o" d="M667.65,367.75,654,405.05l-8.6,0,13.63-37.29Z"/><path class="o" d="M669.47,392.81l15.41-6.22-15.38-7.06,0-7.37,25.06,12.65v4.26l-25.13,11.08Z"/><rect class="l" x="812.88" y="376.25" width="9.93" height="9.93" transform="translate(434.09 1197.87) rotate(-89.82)"/><rect class="l" x="836.3" y="367.61" width="9.93" height="27.33" transform="matrix(0, -1, 1, 0, 457.36, 1221.35)"/><rect class="l" x="812.81" y="391.94" width="9.93" height="9.93" transform="translate(418.33 1213.44) rotate(-89.82)"/><rect class="l" x="836.27" y="383.31" width="9.93" height="27.33" transform="translate(441.64 1236.96) rotate(-89.82)"/><rect class="l" x="812.78" y="407.64" width="9.93" height="9.93" transform="translate(402.6 1229.05) rotate(-89.82)"/><rect class="l" x="836.23" y="399" width="9.93" height="27.33" transform="matrix(0, -1, 1, 0, 425.91, 1252.57)"/><path class="l" d="M605.05,63.8a13.76,13.76,0,0,1-1.85-19.36h0a13.77,13.77,0,0,1,19.36-1.86A13.78,13.78,0,0,1,624.41,62a13.63,13.63,0,0,1-9.29,4.93c-.46,0-.91.07-1.4.07A13.39,13.39,0,0,1,605.05,63.8Zm7.83-19.89a9.23,9.23,0,0,0-6.29,3.36h0A9.31,9.31,0,1,0,621,59.12,9.36,9.36,0,0,0,619.69,46a9.18,9.18,0,0,0-5.9-2.13C613.51,43.88,613.19,43.88,612.88,43.91Z"/><rect class="l" x="592.86" y="66.34" width="16.6" height="4.4" transform="translate(165.78 488.7) rotate(-50.49)"/><circle class="f" cx="515.15" cy="73.9" r="15.73"/><path class="c" d="M504.7,73.87a10.44,10.44,0,0,1,6-9.41V62.3a12.44,12.44,0,0,0,.07,23.24c0-.1,0-.21,0-.31a3,3,0,0,1,.38-1.65v0A10.44,10.44,0,0,1,504.7,73.87Z"/><path class="c" d="M519.45,62.23c0,.14,0,.28,0,.38a3.51,3.51,0,0,1-.31,1.61,10.46,10.46,0,0,1,.77,18.94v2.17a12.4,12.4,0,0,0-.49-23.1Z"/><polygon class="c" points="518.58 65.93 515.81 61.67 520.92 61.39 518.58 65.93"/><polygon class="c" points="510.43 81.42 514.63 84.35 509.94 86.48 510.43 81.42"/><path class="p" d="M545.31,397.81a2.06,2.06,0,0,0-2-1.78h-2.45a1.71,1.71,0,0,0-1.71,1.68l0,16.67a1.71,1.71,0,0,0,1.68,1.71h2.45a2.07,2.07,0,0,0,2.06-1.74,1.16,1.16,0,0,0,0-.32l0-15.9A.88.88,0,0,0,545.31,397.81Z"/><path class="q" d="M535.46,399.46h2.41l0,13.14h-2.41a1.39,1.39,0,0,1-1.36-1.37l0-10.41A1.38,1.38,0,0,1,535.46,399.46Z"/><path class="q" d="M558.74,392.81l-.07,26.6a1.32,1.32,0,0,1-1.93,1.16l-8.18-4.44a2.64,2.64,0,0,1-1.39-2.34l0-15.38a2.68,2.68,0,0,1,1.4-2.34l8.21-4.41A1.33,1.33,0,0,1,558.74,392.81Z"/><path class="p" d="M562.2,415.36v-3.95a5.3,5.3,0,0,0,0-10.59v-3.95a9.25,9.25,0,0,1,0,18.49Z"/><path class="q" d="M562.27,422.42v-3.95a12.38,12.38,0,0,0,.07-24.75v-4a16.33,16.33,0,0,1-.07,32.65Z"/><rect class="o" x="777.67" y="48.56" width="4.16" height="5" transform="translate(726.26 830.65) rotate(-89.82)"/><rect class="o" x="767.66" y="48.54" width="4.16" height="5" transform="translate(716.31 820.61) rotate(-89.82)"/><rect class="o" x="757.69" y="48.51" width="4.16" height="5" transform="translate(706.39 810.62) rotate(-89.82)"/><rect class="o" x="747.72" y="48.48" width="4.16" height="5" transform="translate(696.48 800.62) rotate(-89.82)"/><rect class="o" x="787.64" y="48.59" width="4.16" height="5" transform="translate(736.17 840.65) rotate(-89.82)"/><rect class="o" x="737.71" y="48.46" width="4.16" height="5" transform="translate(686.53 790.58) rotate(-89.82)"/><rect class="o" x="797.61" y="48.62" width="4.16" height="5" transform="translate(746.08 850.65) rotate(-89.82)"/><path class="o" d="M828.85,69.67l-4.16.14v.63l4.16,0A2.75,2.75,0,0,0,828.85,69.67Z"/><path class="o" d="M825.71,59.19l-3.53,2.2a17,17,0,0,1,1.82,4l4-1.19A20.37,20.37,0,0,0,825.71,59.19Z"/><path class="o" d="M817.77,51.67l-2,3.64a17.36,17.36,0,0,1,3.6,2.62l2.87-3A22.85,22.85,0,0,0,817.77,51.67Z"/><path class="o" d="M807.22,49.05v4.16h.42a17.33,17.33,0,0,1,4.05.49l1-4.06a22.19,22.19,0,0,0-5-.59Z"/><path class="o" d="M842.1,112.21l-348.9-1.08a8.07,8.07,0,0,0-8.08,8l-.66,215.45a8.07,8.07,0,0,0,8,8.08l348.91,1.08a8.06,8.06,0,0,0,8.07-8l.67-215.46A8,8,0,0,0,842.1,112.21Zm3.18,223.53a3.9,3.9,0,0,1-3.88,3.88l-348.9-1.09a3.9,3.9,0,0,1-3.88-3.88l.66-215.45a3.9,3.9,0,0,1,3.88-3.88l348.91,1.08a3.9,3.9,0,0,1,3.88,3.88Z"/><path class="o" d="M834.48,122.84l-333.7-1a4.65,4.65,0,0,0-4.68,4.65l-.63,200.87a4.66,4.66,0,0,0,4.65,4.69l333.7,1a4.65,4.65,0,0,0,4.68-4.64l.63-200.88A4.72,4.72,0,0,0,834.48,122.84Zm-.14,205.56a.53.53,0,0,1-.52.52l-333.7-1.05a.5.5,0,0,1-.49-.52l.63-200.88a.5.5,0,0,1,.52-.49l333.7,1a.51.51,0,0,1,.49.52Z"/><path d="M743.74,129.79,636,129.44a5.93,5.93,0,0,1-5.94-6l.1-28.67a6,6,0,0,1,6-5.94l107.79.35a5.94,5.94,0,0,1,5.94,6l-.1,28.66A6,6,0,0,1,743.74,129.79Z"/><path class="c" d="M751.61,124.48l-107.8-.35a5.94,5.94,0,0,1-5.94-6l.1-28.66a6,6,0,0,1,6-5.94l107.8.35a6,6,0,0,1,5.94,6l-.11,28.66A6,6,0,0,1,751.61,124.48Z"/><path class="o" d="M751.61,126.54l-107.8-.35a8.07,8.07,0,0,1-8-8.07l.11-28.66a8.07,8.07,0,0,1,8.07-8l107.8.35a8.07,8.07,0,0,1,8,8.07l-.11,28.66A8,8,0,0,1,751.61,126.54ZM644,85.61A3.94,3.94,0,0,0,640,89.49l-.11,28.66a4,4,0,0,0,3.88,3.92l107.8.35a3.94,3.94,0,0,0,3.91-3.88l.11-28.66A4,4,0,0,0,751.75,86Z"/><rect class="r" x="670.74" y="79.86" width="8.04" height="46.03" transform="translate(569.78 777.32) rotate(-89.82)"/><rect class="r" x="711.26" y="91.47" width="8.04" height="23.03" transform="translate(610.06 817.93) rotate(-89.82)"/><path class="o" d="M610.08,113.57h-4.16v-1.43h4.16Zm0-6.43h-4.16v-5h4.16Zm0-10H606v-5h4.16Zm0-10H606v-5h4.16Zm0-10H606v-5h4.16Z"/><path class="o" d="M700,75.47h-4.16v-5H700Zm0-10h-4.16v-5H700Zm0-10h-4.16v-5H700Z"/><path class="c" d="M823.54,285.79h-4.16v-5h4.16Zm0-10h-4.16v-5h4.16Zm0-10h-4.16v-5h4.16Zm0-10h-4.16v-5h4.16Zm0-10h-4.16v-5h4.16Zm0-10h-4.16v-5h4.16Zm0-10h-4.16v-5h4.16Zm0-10h-4.16v-5h4.16Zm0-10h-4.16v-5h4.16Zm0-10h-4.16v-5h4.16Zm0-10H819.7v-5h4.16Zm0-10h-4.16v-5h4.16Zm0-10h-4.16v-5h4.16Zm0-10H819.8v-5H824Zm0-10h-4.16v-5H824Zm0-10h-4.16v-5H824Zm0-10h-4.16v-5h4.16Zm0-10h-4.16v-5h4.16Z"/><path class="o" d="M771.64,367.37h-4.16v-5h4.16Zm0-10h-4.16v-5h4.16Zm0-10h-4.16v-5h4.16Zm0-10h-4.16v-5h4.16Zm0-10h-4.16v-5h4.16Zm0-10h-4.16v-5h4.16Zm0-10h-4.16v-5h4.16Zm0-10h-4.16v-5h4.16Zm0-10h-4.16v-5h4.16Zm0-10h-4.16v-5h4.16Zm0-10h-4.16v-5H772Z"/><rect class="c" x="535.11" y="149.61" width="9.12" height="47.08" transform="translate(364.84 712.28) rotate(-89.82)"/><rect class="c" x="532.89" y="173.08" width="4.54" height="38.13" transform="translate(341.35 726.71) rotate(-89.82)"/><rect class="c" x="532.82" y="187.06" width="4.54" height="38.13" transform="translate(327.29 740.58) rotate(-89.82)"/><rect class="c" x="532.78" y="201.01" width="4.54" height="38.13" transform="translate(313.31 754.44) rotate(-89.82)"/><circle cx="475.97" cy="159.19" r="18.32"/><circle class="f" cx="473.31" cy="156.53" r="18.32"/><rect class="c" x="462.69" y="153.87" width="21.25" height="5.31" transform="translate(27.25 379.14) rotate(-44.82)"/><rect class="c" x="470.66" y="145.91" width="5.31" height="21.25" transform="translate(27.25 379.15) rotate(-44.82)"/><rect x="514.12" y="111.32" width="47.89" height="38.13" transform="translate(406 668.04) rotate(-89.82)"/><rect class="k" x="511.39" y="108.38" width="47.89" height="38.13" transform="translate(406.22 662.39) rotate(-89.82)"/><rect class="c" x="520.99" y="109.27" width="28.7" height="36.32"/><polygon class="o" points="552.34 384.6 539.62 360.73 489.77 360.55 489.77 356.39 542.13 356.57 556.01 382.68 552.34 384.6"/><polygon class="o" points="598.16 101.34 585.48 77.43 535.63 77.29 535.63 73.13 587.99 73.27 601.87 99.38 598.16 101.34"/><circle class="c" cx="485.89" cy="358.91" r="5.21"/><path class="o" d="M485.86,366.18a7.29,7.29,0,1,1,7.3-7.27A7.3,7.3,0,0,1,485.86,366.18Zm0-10.42a3.13,3.13,0,1,0,3.11,3.15A3.15,3.15,0,0,0,485.89,355.76Z"/><rect class="c" x="517.12" y="301.68" width="5.1" height="10.03" transform="translate(211.37 825.41) rotate(-89.82)"/><rect class="c" x="520.1" y="289.93" width="5.1" height="15.97" transform="translate(223.1 819.63) rotate(-89.82)"/><rect class="c" x="523.87" y="277.42" width="5.1" height="23.45" transform="translate(235.64 814.66) rotate(-89.82)"/><rect class="c" x="527.7" y="264.85" width="5.1" height="31.04" transform="translate(248.23 809.75) rotate(-89.82)"/><path class="c" d="M614.42,175.27l-15.94-7.13v-2.73l16-7.94v4.69l-9.83,4.44,9.79,4Z"/><path class="c" d="M629.9,154.68l-8.67,23.73h-5.45l8.67-23.73Z"/><path class="c" d="M631.05,170.65l9.83-4-9.79-4.51v-4.68l15.94,8v2.73l-16,7.06Z"/><rect class="c" x="644.32" y="178.5" width="5.07" height="50.68" transform="translate(441 850.06) rotate(-89.82)"/><rect class="c" x="644.08" y="258.68" width="5.07" height="50.68" transform="translate(360.57 929.75) rotate(-89.82)"/><rect class="c" x="665.15" y="188.57" width="5.07" height="50.68" transform="translate(451.7 880.92) rotate(-89.82)"/><rect class="c" x="664.94" y="248.72" width="5.07" height="50.68" transform="translate(391.34 940.68) rotate(-89.82)"/><rect class="c" x="675.1" y="215.99" width="5.07" height="36.04" transform="translate(441.52 910.9) rotate(-89.82)"/><rect class="c" x="675.06" y="236.02" width="5.07" height="36.04" transform="translate(421.45 930.83) rotate(-89.82)"/><rect class="c" x="692.54" y="226.05" width="5.07" height="36.04" transform="translate(448.84 938.38) rotate(-89.82)"/><rect class="c" x="655.63" y="208.05" width="5.07" height="31.7" transform="translate(432.21 881.37) rotate(-89.82)"/><rect class="c" x="655.49" y="248.14" width="5.07" height="31.7" transform="translate(391.98 921.19) rotate(-89.82)"/><path class="c" d="M668.52,169h-3.21v-4.82H661.6V169h-3.21l0-11.84h3.22v4.4h3.7v-4.4h3.22Z"/><path class="c" d="M676.32,169H673.1l0-9.23h-2.9v-2.62l9,0v2.62h-2.9Z"/><path class="c" d="M686,169l-2.42-8.52h-.07c.11,1.46.18,2.58.18,3.39V169H680.9l0-11.84h4.27l2.44,8.42h.07l2.45-8.39h4.26l0,11.85h-2.94V163c0-.31,0-1.15.11-2.41h-.07L689.08,169Z"/><path class="c" d="M696.94,169.08l0-11.85h3.21l0,9.26h4.58v2.59Z"/><path class="o" d="M787.61,216.34h-1.75l-2.34-4.86-20.76-.07-2.38,4.86-29.19-.11a4.8,4.8,0,0,0-4.78,4.75l-.11,32.34a4.78,4.78,0,0,0,4.75,4.78l56.45.18a4.8,4.8,0,0,0,4.79-4.75l.11-32.34A4.86,4.86,0,0,0,787.61,216.34Z"/><path class="c" d="M796.56,213.09H793l-2.34-4.86-17.24-.07L771.08,213l-31-.11a1.91,1.91,0,0,0-1.92,1.92l-.11,32.33a1.92,1.92,0,0,0,1.92,1.93l56.45.17a1.91,1.91,0,0,0,1.92-1.92l.11-32.33A2,2,0,0,0,796.56,213.09Z"/><path class="o" d="M796.42,252.13,740,252a4.79,4.79,0,0,1-4.76-4.79l.11-32.33a4.79,4.79,0,0,1,4.79-4.75l29.18.1,2.38-4.85,20.76.07,2.34,4.85h1.75a4.8,4.8,0,0,1,4.76,4.79l-.11,32.33A4.69,4.69,0,0,1,796.42,252.13Zm-55.51-5.8,54.63.17.11-30.55h-4.41l-2.34-4.86-13.66,0-2.38,4.86L741,215.81Z"/><path d="M755.73,225.88a3.18,3.18,0,0,0-2.79,1.47,7,7,0,0,0-1,4.05c0,3.57,1.33,5.35,4.06,5.38a7.65,7.65,0,0,0,2.37-.35c.77-.21,1.54-.49,2.35-.8v4.23a13.35,13.35,0,0,1-5.25,1,8.4,8.4,0,0,1-6.43-2.44c-1.5-1.65-2.24-4-2.2-7.06a11.07,11.07,0,0,1,1.12-5.07,7.91,7.91,0,0,1,3.14-3.36,9.62,9.62,0,0,1,4.79-1.15,13,13,0,0,1,5.73,1.33l-1.53,3.95a16.09,16.09,0,0,0-2.07-.81A6.16,6.16,0,0,0,755.73,225.88Z"/><path d="M776.46,235a5.82,5.82,0,0,1-.87,3.07,5.94,5.94,0,0,1-2.52,2.06,9.49,9.49,0,0,1-3.88.74,15.9,15.9,0,0,1-3.11-.28,12.6,12.6,0,0,1-2.62-.91v-4.47a15.74,15.74,0,0,0,3,1.15,11.08,11.08,0,0,0,2.83.42,2.87,2.87,0,0,0,1.64-.39,1.16,1.16,0,0,0,.53-1,1.09,1.09,0,0,0-.21-.67,3,3,0,0,0-.67-.59,20.54,20.54,0,0,0-2.48-1.19,12.48,12.48,0,0,1-2.73-1.61,5,5,0,0,1-1.32-1.78,6.17,6.17,0,0,1-.42-2.38,4.7,4.7,0,0,1,1.88-4,8.34,8.34,0,0,1,5.14-1.44,14.06,14.06,0,0,1,5.87,1.37L775,227.07a11.72,11.72,0,0,0-4.48-1.23,2.3,2.3,0,0,0-1.43.35,1.16,1.16,0,0,0-.46.84,1.23,1.23,0,0,0,.56,1,24.35,24.35,0,0,0,3.08,1.57,8.58,8.58,0,0,1,3.32,2.34A5.2,5.2,0,0,1,776.46,235Z"/><path d="M791.45,235.07a5.76,5.76,0,0,1-.87,3.08,5.89,5.89,0,0,1-2.52,2.06,9.43,9.43,0,0,1-3.88.73,15.16,15.16,0,0,1-3.11-.28,12,12,0,0,1-2.62-.91v-4.47a15.59,15.59,0,0,0,3,1.15,11.08,11.08,0,0,0,2.83.42,3,3,0,0,0,1.65-.38,1.18,1.18,0,0,0,.52-1,1.06,1.06,0,0,0-.21-.66,2.85,2.85,0,0,0-.66-.6,23.34,23.34,0,0,0-2.48-1.19,12.26,12.26,0,0,1-2.73-1.6,4.93,4.93,0,0,1-1.33-1.79,6.12,6.12,0,0,1-.42-2.37,4.7,4.7,0,0,1,1.89-4,8.41,8.41,0,0,1,5.14-1.43,14,14,0,0,1,5.87,1.36L790,227.1a11.64,11.64,0,0,0-4.47-1.22,2.27,2.27,0,0,0-1.44.35,1.11,1.11,0,0,0-.45.84,1.2,1.2,0,0,0,.56,1,25.41,25.41,0,0,0,3.07,1.57,8.42,8.42,0,0,1,3.33,2.34A5.14,5.14,0,0,1,791.45,235.07Z"/><circle class="f" cx="730.81" cy="384.18" r="9.82"/><circle class="l" cx="762.9" cy="384.29" r="9.82"/><circle class="k" cx="795.86" cy="384.39" r="9.82"/><path class="c" d="M831.55,99l-37.16-.1a2.9,2.9,0,0,1-2.9-2.94l.07-22.72a2.9,2.9,0,0,1,2.93-2.9l37.16.11a2.89,2.89,0,0,1,2.9,2.93l-.07,22.72A2.92,2.92,0,0,1,831.55,99Z"/><path class="n" d="M831.62,70.48l-37.16-.11a2.92,2.92,0,0,0-2.94,2.9l0,5.94,43,.14,0-5.94A2.88,2.88,0,0,0,831.62,70.48Z"/><path class="o" d="M831.55,100.08l-37.16-.1a4,4,0,0,1-3.95-4l.07-22.72a4,4,0,0,1,4-4l37.16.11a4,4,0,0,1,4,4l-.07,22.72A4,4,0,0,1,831.55,100.08Zm-37.09-28.7a1.88,1.88,0,0,0-1.89,1.89L792.5,96a1.88,1.88,0,0,0,1.89,1.89l37.16.1a1.87,1.87,0,0,0,1.88-1.88l.07-22.72a1.88,1.88,0,0,0-1.88-1.89Z"/><path class="c" d="M843.32,106l-37.15-.1a2.9,2.9,0,0,1-2.9-2.94l.07-22.72a2.91,2.91,0,0,1,2.93-2.9l37.16.11a2.9,2.9,0,0,1,2.9,2.93l-.07,22.72A2.92,2.92,0,0,1,843.32,106Z"/><path class="q" d="M843.43,77.43l-37.16-.1a2.92,2.92,0,0,0-2.93,2.9l0,5.94,43,.14,0-5.94A2.92,2.92,0,0,0,843.43,77.43Z"/><path class="o" d="M843.32,107l-37.15-.11a4,4,0,0,1-3.95-4l.07-22.72a4,4,0,0,1,4-4l37.16.1a4,4,0,0,1,4,4l-.07,22.72A3.94,3.94,0,0,1,843.32,107ZM806.27,78.38a1.87,1.87,0,0,0-1.88,1.88L804.32,103a1.88,1.88,0,0,0,1.88,1.89l37.16.1a1.87,1.87,0,0,0,1.89-1.88l.07-22.72a1.88,1.88,0,0,0-1.89-1.89Z"/><rect class="c" x="795.76" y="290.75" width="4.54" height="22.02" transform="translate(493.78 1098.85) rotate(-89.82)"/><rect class="c" x="805.61" y="290.26" width="4.54" height="41.8" transform="translate(494.2 1118.08) rotate(-89.82)"/><rect class="c" x="800.18" y="303.7" width="4.54" height="30.93" transform="translate(480.78 1120.62) rotate(-89.82)"/><path class="o" d="M865.87,306.34l-51.21-.17a1.72,1.72,0,0,1-1.74-1.75l0-9.82a1.73,1.73,0,0,1,1.75-1.75l51.2.17a1.73,1.73,0,0,1,1.75,1.75l0,9.82A1.71,1.71,0,0,1,865.87,306.34Z"/><path class="s" d="M868.11,304.24l-51.21-.17a1.73,1.73,0,0,1-1.75-1.75l0-9.82a1.73,1.73,0,0,1,1.74-1.75l51.21.18a1.72,1.72,0,0,1,1.75,1.74l0,9.83A1.77,1.77,0,0,1,868.11,304.24Z"/><rect class="c" x="840.25" y="276.63" width="4.54" height="41.8" transform="translate(542.37 1139.13) rotate(-89.82)"/><rect class="m" x="537.83" y="49.54" width="4.16" height="5" transform="translate(486.19 591.79) rotate(-89.82)"/><path class="m" d="M485.61,59.4l-3-2.91a22.51,22.51,0,0,0-3.32,4.37l3.6,2.1A18.2,18.2,0,0,1,485.61,59.4Z"/><rect class="m" x="547.8" y="49.57" width="4.16" height="5" transform="translate(496.09 601.78) rotate(-89.82)"/><path class="m" d="M481.14,67.05l-4-1.15a21.57,21.57,0,0,0-.84,5.42l4.16.13A18.89,18.89,0,0,1,481.14,67.05Z"/><rect class="m" x="577.75" y="49.68" width="4.16" height="5" transform="translate(525.85 631.84) rotate(-89.82)"/><rect class="m" x="567.79" y="49.64" width="4.16" height="5" transform="translate(515.95 621.85) rotate(-89.82)"/><rect class="m" x="557.79" y="49.61" width="4.16" height="5" transform="translate(506.02 611.82) rotate(-89.82)"/><rect class="m" x="587.74" y="49.7" width="4.16" height="5" transform="translate(535.78 641.85) rotate(-89.82)"/><rect class="m" x="527.84" y="49.54" width="4.16" height="5" transform="translate(476.23 581.79) rotate(-89.82)"/><rect class="m" x="517.84" y="49.5" width="4.16" height="5" transform="translate(466.3 571.76) rotate(-89.82)"/><path class="m" d="M520.43,403.79c1.67,0,3.32,0,5,0l0-4.15c-1.64,0-3.32,0-5,0Z"/><rect class="m" x="510.88" y="399.13" width="4.16" height="5" transform="translate(105.5 909.98) rotate(-89.35)"/><path class="m" d="M502.46,49.85h-3.91a11.44,11.44,0,0,0-1.19,0l.21,4.16c.31,0,.63,0,.94,0h3.92Z"/><rect class="m" x="507.88" y="49.47" width="4.16" height="5" transform="translate(456.4 561.76) rotate(-89.82)"/><path class="m" d="M480,385.4l-4.05,1a23.37,23.37,0,0,0,1.88,5.17l3.71-1.92A20.34,20.34,0,0,1,480,385.4Z"/><path class="m" d="M489.91,402.18a21.88,21.88,0,0,0,5.35,1.23l.42-4.13a16.75,16.75,0,0,1-4.33-1Z"/><polygon class="m" points="500.43 403.55 505.43 403.62 505.47 399.45 500.5 399.39 500.43 403.55"/><path class="m" d="M491.94,50.83a21.25,21.25,0,0,0-5,2.27l2.17,3.57a17.71,17.71,0,0,1,4.05-1.82Z"/><path class="m" d="M484,393.27,480.9,396a22.76,22.76,0,0,0,4.12,3.64l2.34-3.43A20.53,20.53,0,0,1,484,393.27Z"/><path class="t" d="M632.45,47.2a3,3,0,0,0,0,4.89,11.7,11.7,0,0,1-.24-2.45A14.11,14.11,0,0,1,632.45,47.2Z"/><path class="t" d="M641.5,61.74a4.33,4.33,0,0,0,3.22,1.75,4.38,4.38,0,0,0,3.22-1.75,12.15,12.15,0,0,1-3.22.42A14.27,14.27,0,0,1,641.5,61.74Z"/><path class="t" d="M647.94,37.55a4.33,4.33,0,0,0-3.22-1.75,4.38,4.38,0,0,0-3.22,1.75,12.15,12.15,0,0,1,3.22-.42A17,17,0,0,1,647.94,37.55Z"/><path class="t" d="M657,47.2a12.57,12.57,0,0,1,0,4.89,3.42,3.42,0,0,0,1.29-2.45A3.53,3.53,0,0,0,657,47.2Z"/><path class="k" d="M638.57,44.37a26.52,26.52,0,0,0,0,10.55,28.56,28.56,0,0,0,12.3,0,26.52,26.52,0,0,0,0-10.55,28.56,28.56,0,0,0-12.3,0Z"/><path class="k" d="M636.68,44.89a11.85,11.85,0,0,0-4.19,2.31,12.08,12.08,0,0,0,0,4.89,12,12,0,0,0,4.19,2.31,29.94,29.94,0,0,1,0-9.51Z"/><path class="k" d="M633.36,54.85a12.59,12.59,0,0,0,5.31,5.73,19.51,19.51,0,0,1-1.57-4.22A17.55,17.55,0,0,1,633.36,54.85Z"/><path class="k" d="M650.77,60.58a12.61,12.61,0,0,0,5.31-5.73,18.93,18.93,0,0,1-3.74,1.51A17.62,17.62,0,0,1,650.77,60.58Z"/><path class="k" d="M650.42,42.48a13.71,13.71,0,0,0-2.48-4.93,12.15,12.15,0,0,0-3.22-.42,12.31,12.31,0,0,0-3.22.42A13.94,13.94,0,0,0,639,42.48a30.92,30.92,0,0,1,11.4,0Z"/><path class="k" d="M657,47.2a11.91,11.91,0,0,0-4.2-2.31,29.18,29.18,0,0,1,0,9.51,12.07,12.07,0,0,0,4.2-2.31,11.7,11.7,0,0,0,.24-2.45A14.11,14.11,0,0,0,657,47.2Z"/><path class="k" d="M656.08,44.44a12.62,12.62,0,0,0-5.31-5.74,19.28,19.28,0,0,1,1.57,4.23A17.55,17.55,0,0,1,656.08,44.44Z"/><path class="k" d="M638.67,38.7a12.68,12.68,0,0,0-5.31,5.74,18.93,18.93,0,0,1,3.74-1.51A18.85,18.85,0,0,1,638.67,38.7Z"/><path class="k" d="M639,56.81a13.71,13.71,0,0,0,2.48,4.93,12.15,12.15,0,0,0,3.22.42,12.31,12.31,0,0,0,3.22-.42,13.94,13.94,0,0,0,2.48-4.93,31.5,31.5,0,0,1-11.4,0Z"/><path class="c" d="M814.21,167.89a17,17,0,1,1-17-17A16.94,16.94,0,0,1,814.21,167.89Z"/><circle class="l" cx="797.22" cy="165.06" r="7.27"/><path class="l" d="M805.89,177.47v5a17,17,0,0,1-17.34,0v-5a6.66,6.66,0,0,1,4.69-6.36,6.24,6.24,0,0,1,2-.32h4a6.3,6.3,0,0,1,2,.32A6.72,6.72,0,0,1,805.89,177.47Z"/><circle class="g" cx="768.28" cy="71.38" r="6.29"/><path class="g" d="M751.15,75.86H737.24a4.44,4.44,0,0,1-4.44-4.44h0A4.44,4.44,0,0,1,737.24,67h13.91a4.44,4.44,0,0,1,4.44,4.44h0A4.4,4.4,0,0,1,751.15,75.86Z"/><circle class="m" cx="577.72" cy="364.12" r="6.29"/><path class="m" d="M594.84,368.56h13.91a4.45,4.45,0,0,0,4.44-4.44h0a4.44,4.44,0,0,0-4.44-4.44H594.84a4.45,4.45,0,0,0-4.44,4.44h0A4.41,4.41,0,0,0,594.84,368.56Z"/></svg>